<svg width="11" height="10" viewBox="0 0 11 10" fill="none" xmlns="http://www.w3.org/2000/svg">
<path d="M3.23934 9.86319V3.3801H1.08638V9.86319H3.23957H3.23934ZM2.16331 2.4951C2.91394 2.4951 3.38125 1.99727 3.38125 1.37513C3.3672 0.738814 2.91394 0.254883 2.17758 0.254883C1.44073 0.254883 0.959473 0.738814 0.959473 1.37507C0.959473 1.99721 1.42662 2.49504 2.1492 2.49504H2.16314L2.16331 2.4951ZM4.43104 9.86319H6.58384V6.24313C6.58384 6.04962 6.59789 5.85561 6.65476 5.7174C6.81033 5.33011 7.16457 4.92921 7.75946 4.92921C8.5383 4.92921 8.85005 5.52367 8.85005 6.39529V9.86319H11.0028V6.14598C11.0028 4.15474 9.94081 3.22811 8.52436 3.22811C7.36307 3.22811 6.85304 3.87776 6.56967 4.32023H6.58401V3.38033H4.43115C4.45925 3.98852 4.43098 9.86342 4.43098 9.86342L4.43104 9.86319Z" fill="#525866"/>
</svg>
