<svg width="14" height="14" viewBox="0 0 14 14" fill="none" xmlns="http://www.w3.org/2000/svg">
<path d="M7.05747 13.6303C3.44489 13.6303 0.504517 10.6899 0.504517 7.07736C0.504517 3.46479 3.44489 0.524414 7.05747 0.524414C10.67 0.524414 13.6104 3.46479 13.6104 7.07736C13.6104 10.6899 10.67 13.6303 7.05747 13.6303ZM7.05747 1.58134C4.0262 1.58134 1.56144 4.0461 1.56144 7.07736C1.56144 10.1086 4.0262 12.5734 7.05747 12.5734C10.0887 12.5734 12.5535 10.1086 12.5535 7.07736C12.5535 4.0461 10.0887 1.58134 7.05747 1.58134Z" fill="#525866"/>
<path d="M5.15533 6.43218C3.91661 6.43218 2.57643 6.24828 1.14746 5.87624C0.864205 5.80225 0.695096 5.51477 0.769081 5.23151C0.843066 4.94826 1.13055 4.77915 1.41381 4.85313C5.74298 5.9777 9.13149 5.26533 11.2115 2.79635C11.3997 2.5744 11.7336 2.5448 11.9556 2.73293C12.1797 2.92107 12.2072 3.25506 12.019 3.47701C10.3681 5.43656 8.0344 6.43218 5.15533 6.43218Z" fill="#525866"/>
<path d="M2.51354 11.5607C2.39093 11.5607 2.27044 11.5184 2.17109 11.4339C1.94914 11.2436 1.92377 10.9096 2.11191 10.6877C5.20236 7.07512 9.20178 6.21689 13.0849 8.33709C13.3407 8.4766 13.4358 8.79791 13.2963 9.05368C13.1568 9.30946 12.8355 9.40458 12.5797 9.26507C7.91655 6.7221 4.52381 9.49548 2.91517 11.3768C2.81159 11.4973 2.66362 11.5607 2.51354 11.5607Z" fill="#525866"/>
<path d="M8.78901 13.3768C8.76999 13.3768 8.75096 13.3768 8.73194 13.3747C8.44234 13.343 8.23307 13.083 8.26478 12.7913C8.67698 9.01171 7.70461 5.20043 5.37725 1.45891C5.22294 1.21159 5.29904 0.886056 5.54636 0.731745C5.79368 0.577433 6.11922 0.653532 6.27353 0.900853C8.72983 4.84742 9.75293 8.887 9.31536 12.9076C9.28366 13.1781 9.05536 13.3768 8.78901 13.3768Z" fill="#525866"/>
</svg>
