<svg width="24" height="25" viewBox="0 0 24 25" fill="none" xmlns="http://www.w3.org/2000/svg">
<path fill-rule="evenodd" clip-rule="evenodd" d="M12 1.5C5.92487 1.5 1 6.42487 1 12.5C1 18.5751 5.92487 23.5 12 23.5C18.0751 23.5 23 18.5751 23 12.5C23 6.42487 18.0751 1.5 12 1.5ZM10.9066 8.77123C11.3138 8.53191 11.7926 8.44443 12.2581 8.52428C12.7236 8.60413 13.1459 8.84615 13.45 9.20749C13.7542 9.56883 13.9207 10.0262 13.92 10.4985L13.92 10.5C13.92 10.9691 13.5549 11.4582 12.8653 11.9179C12.5509 12.1275 12.2294 12.2889 11.9826 12.3986C11.8606 12.4529 11.7603 12.4929 11.6929 12.5186C11.663 12.53 11.6329 12.541 11.6027 12.5516C11.0794 12.7267 10.7968 13.2926 10.9713 13.8162C11.146 14.3401 11.7123 14.6233 12.2362 14.4486L12.4049 14.3876C12.5015 14.3508 12.6356 14.2971 12.7949 14.2263C13.1105 14.086 13.5391 13.8724 13.9747 13.582C14.7849 13.0419 15.9195 12.0312 15.92 10.5009C15.9213 9.55644 15.5883 8.64201 14.9801 7.91949C14.3717 7.19682 13.5273 6.71277 12.5962 6.55307C11.6652 6.39337 10.7077 6.56833 9.89327 7.04696C9.07886 7.52559 8.46013 8.27701 8.14666 9.16812C7.96339 9.68911 8.23716 10.26 8.75815 10.4433C9.27914 10.6266 9.85006 10.3528 10.0333 9.83181C10.1901 9.38625 10.4994 9.01054 10.9066 8.77123ZM12 16.5C11.4477 16.5 11 16.9477 11 17.5C11 18.0522 11.4477 18.5 12 18.5H12.01C12.5623 18.5 13.01 18.0522 13.01 17.5C13.01 16.9477 12.5623 16.5 12.01 16.5H12Z" fill="#D1D5DB"/>
</svg>
