<svg width="40" height="41" viewBox="0 0 40 41" fill="none" xmlns="http://www.w3.org/2000/svg">
<rect x="0.5" y="1" width="39" height="39" rx="19.5" stroke="#E5E7EB"/>
<path d="M20 12.375C18.393 12.375 16.8221 12.8515 15.486 13.7443C14.1498 14.6371 13.1084 15.906 12.4935 17.3907C11.8785 18.8753 11.7176 20.509 12.0311 22.0851C12.3446 23.6612 13.1185 25.1089 14.2548 26.2452C15.3911 27.3815 16.8388 28.1554 18.4149 28.4689C19.991 28.7824 21.6247 28.6215 23.1093 28.0065C24.594 27.3916 25.8629 26.3502 26.7557 25.014C27.6485 23.6779 28.125 22.107 28.125 20.5C28.1209 18.3464 27.2635 16.2822 25.7407 14.7593C24.2178 13.2365 22.1536 12.3791 20 12.375ZM20 25.5C19.8146 25.5 19.6333 25.445 19.4792 25.342C19.325 25.239 19.2048 25.0926 19.1339 24.9213C19.0629 24.75 19.0443 24.5615 19.0805 24.3796C19.1167 24.1977 19.206 24.0307 19.3371 23.8996C19.4682 23.7685 19.6352 23.6792 19.8171 23.643C19.999 23.6068 20.1875 23.6254 20.3588 23.6964C20.5301 23.7673 20.6765 23.8875 20.7795 24.0417C20.8825 24.1958 20.9375 24.3771 20.9375 24.5625C20.9375 24.8111 20.8387 25.0496 20.6629 25.2254C20.4871 25.4012 20.2486 25.5 20 25.5ZM20.625 21.6797V21.75C20.625 21.9158 20.5592 22.0747 20.4419 22.1919C20.3247 22.3092 20.1658 22.375 20 22.375C19.8342 22.375 19.6753 22.3092 19.5581 22.1919C19.4409 22.0747 19.375 21.9158 19.375 21.75V21.125C19.375 20.9592 19.4409 20.8003 19.5581 20.6831C19.6753 20.5658 19.8342 20.5 20 20.5C20.309 20.5 20.6111 20.4084 20.8681 20.2367C21.125 20.065 21.3253 19.821 21.4436 19.5354C21.5618 19.2499 21.5928 18.9358 21.5325 18.6327C21.4722 18.3296 21.3234 18.0512 21.1049 17.8326C20.8863 17.6141 20.6079 17.4653 20.3048 17.405C20.0017 17.3447 19.6876 17.3757 19.4021 17.4939C19.1166 17.6122 18.8725 17.8125 18.7008 18.0694C18.5291 18.3264 18.4375 18.6285 18.4375 18.9375C18.4375 19.1033 18.3717 19.2622 18.2544 19.3794C18.1372 19.4967 17.9783 19.5625 17.8125 19.5625C17.6467 19.5625 17.4878 19.4967 17.3706 19.3794C17.2534 19.2622 17.1875 19.1033 17.1875 18.9375C17.1875 18.4081 17.337 17.8894 17.6187 17.4411C17.9004 16.9928 18.3029 16.6331 18.7799 16.4034C19.2569 16.1738 19.7891 16.0834 20.3152 16.1427C20.8413 16.2021 21.34 16.4087 21.7539 16.7389C22.1678 17.0691 22.4801 17.5093 22.6549 18.0091C22.8296 18.5089 22.8598 19.0478 22.7418 19.564C22.6239 20.0801 22.3627 20.5525 21.9882 20.9268C21.6137 21.3011 21.1412 21.562 20.625 21.6797Z" fill="#3381FF"/>
</svg>
