<svg width="150" height="24" viewBox="0 0 150 24" fill="none" xmlns="http://www.w3.org/2000/svg">
<g clip-path="url(#clip0_7608_4857)">
<path d="M23.8978 19.2C27.8742 19.2 31.0978 15.9764 31.0978 12C31.0978 8.02356 27.8742 4.8 23.8978 4.8C20.1659 4.8 17.0971 7.63926 16.7338 11.2755C15.2628 10.6102 13.6736 10.2125 12.0461 10.1079C12.9534 4.37947 17.9142 0 23.8978 0C30.5252 0 35.8978 5.37259 35.8978 12C35.8978 18.3857 30.9099 23.6064 24.6177 23.9788V24H16.7094V22.9527C16.7094 21.5922 16.1484 20.2693 15.12 19.2802C14.0888 18.2882 12.6722 17.7164 11.1777 17.7164C9.68327 17.7164 8.26673 18.2882 7.23545 19.2802C6.20713 20.2693 5.64604 21.5922 5.64604 22.9527V24H0.377747V22.9271C0.377747 20.1223 1.54177 17.4544 3.57779 15.5039C5.54868 13.6158 8.18057 12.5461 10.9204 12.483C11.0061 12.481 11.0919 12.48 11.1777 12.48C11.2442 12.48 11.3106 12.4806 11.3771 12.4818C14.1377 12.5311 16.7929 13.6024 18.7777 15.5039C19.8772 16.5572 20.7224 17.8197 21.2673 19.2H23.8978Z" fill="#9CA3AF"/>
<path d="M13.3833 20.9534C13.9683 21.4622 14.2971 22.1523 14.2971 22.8719V23.9987H8.05707V22.8719C8.05707 22.1523 8.38581 21.4622 8.97087 20.9534C9.55599 20.4445 10.3496 20.1587 11.1771 20.1587C12.0045 20.1587 12.7981 20.4445 13.3833 20.9534Z" fill="#9CA3AF"/>
<path d="M26.6468 10.821C25.7792 10.821 25.076 10.1177 25.076 9.25012V8.85736C25.076 8.20672 24.5485 7.6792 23.8978 7.6792C23.2471 7.6792 22.7196 8.20666 22.7196 8.85736V9.25012C22.7196 10.1177 22.0163 10.821 21.1487 10.821H20.7559C20.1053 10.821 19.5778 11.3485 19.5778 11.9992C19.5778 12.6499 20.1053 13.1774 20.7559 13.1774H21.1487C22.0163 13.1774 22.7196 13.8807 22.7196 14.7483V15.141C22.7196 15.7917 23.2471 16.3192 23.8978 16.3192C24.5485 16.3192 25.076 15.7917 25.076 15.141V14.7483C25.076 13.8807 25.7792 13.1774 26.6468 13.1774H27.0396C27.6903 13.1774 28.2178 12.6499 28.2178 11.9992C28.2178 11.3485 27.6903 10.821 27.0396 10.821H26.6468Z" fill="#9CA3AF"/>
<path d="M7.09781 1.92002C7.09781 2.98039 7.95743 3.83999 9.01781 3.83999H9.49775C10.293 3.83999 10.9377 4.48471 10.9377 5.27999C10.9377 6.0753 10.293 6.72 9.49775 6.72H9.01781C7.95743 6.72 7.09781 7.57962 7.09781 8.63994V9.12C7.09781 9.9153 6.45311 10.56 5.65781 10.56C4.86252 10.56 4.21781 9.9153 4.21781 9.12V8.64C4.21781 7.57962 3.3582 6.72 2.29781 6.72H1.81775C1.02246 6.72 0.377747 6.0753 0.377747 5.27999C0.377747 4.48471 1.02246 3.83999 1.81775 3.83999H2.29782C3.3582 3.83999 4.21781 2.98039 4.21781 1.92V1.44C4.21781 0.644712 4.86252 0 5.65781 0C6.45311 0 7.09781 0.644712 7.09781 1.44V1.92002Z" fill="#9CA3AF"/>
<path d="M143.945 7.94287C147.55 7.94287 149.29 10.4616 149.29 13.3791V18.8572H145.517V14.0298C145.517 12.7074 145.035 11.616 143.651 11.616C142.268 11.616 141.806 12.7074 141.806 14.0298V18.8572H138.033V14.0298C138.033 12.7074 137.571 11.616 136.188 11.616C134.804 11.616 134.322 12.7074 134.322 14.0298V18.8572H130.548V13.3791C130.548 10.4616 132.288 7.94287 135.894 7.94287C137.865 7.94287 139.29 8.71951 139.94 9.99985C140.632 8.71951 142.142 7.94287 143.945 7.94287Z" fill="#9CA3AF"/>
<path d="M123.768 15.5C124.984 15.5 125.508 14.3876 125.508 13.0653V8.36377H129.281V13.5271C129.281 16.6125 127.478 19.1732 123.768 19.1732C120.057 19.1732 118.254 16.6125 118.254 13.5271V8.36377H122.028V13.0653C122.028 14.3876 122.552 15.5 123.768 15.5Z" fill="#9CA3AF"/>
<path d="M112.705 19.1936C110.336 19.1936 108.806 18.375 107.904 16.7798L110.629 15.2476C111.007 15.9193 111.573 16.2551 112.516 16.2551C113.292 16.2551 113.649 15.9822 113.649 15.6464C113.649 14.366 108.114 15.6674 108.114 11.5955C108.114 9.6225 109.791 8.02734 112.642 8.02734C115.137 8.02734 116.5 9.24468 117.108 10.4201L114.382 11.9733C114.151 11.3436 113.439 10.9658 112.726 10.9658C112.181 10.9658 111.888 11.1967 111.888 11.5115C111.888 12.8128 117.422 11.6165 117.422 15.5624C117.422 17.7663 115.263 19.1936 112.705 19.1936Z" fill="#9CA3AF"/>
<path d="M99.5218 23.6853H95.7484V13.5895C95.7484 10.3781 98.1592 8.04834 101.513 8.04834C104.783 8.04834 107.278 10.5461 107.278 13.5895C107.278 16.9478 105.056 19.1726 101.723 19.1726C100.947 19.1726 100.172 18.9418 99.5218 18.5849V23.6853ZM101.513 15.6254C102.708 15.6254 103.505 14.7019 103.505 13.6105C103.505 12.4981 102.708 11.5955 101.513 11.5955C100.318 11.5955 99.5218 12.4981 99.5218 13.6105C99.5218 14.7019 100.318 15.6254 101.513 15.6254Z" fill="#9CA3AF"/>
<path d="M91.9684 7.24996C90.7312 7.24996 89.704 6.2215 89.704 4.98314C89.704 3.74478 90.7312 2.71631 91.9684 2.71631C93.205 2.71631 94.2322 3.74478 94.2322 4.98314C94.2322 6.2215 93.205 7.24996 91.9684 7.24996ZM90.0814 8.36242H93.8548V18.857H90.0814V8.36242Z" fill="#9CA3AF"/>
<path d="M82.8424 19.1726C79.5718 19.1726 77.077 16.6538 77.077 13.5895C77.077 10.546 79.5718 8.02734 82.8424 8.02734C86.1124 8.02734 88.6072 10.546 88.6072 13.5895C88.6072 16.6538 86.1124 19.1726 82.8424 19.1726ZM82.8424 15.6254C84.037 15.6254 84.8338 14.7019 84.8338 13.6105C84.8338 12.498 84.037 11.5745 82.8424 11.5745C81.6472 11.5745 80.8504 12.498 80.8504 13.6105C80.8504 14.7019 81.6472 15.6254 82.8424 15.6254Z" fill="#9CA3AF"/>
<path d="M69.9526 24.0001C67.3528 24.0001 65.4664 22.8457 64.5016 20.7888L67.6252 19.1096C67.9606 19.8233 68.59 20.5579 69.8896 20.5579C71.2522 20.5579 72.1534 19.6973 72.2584 18.1861C71.7556 18.6269 70.9588 18.9628 69.7636 18.9628C66.85 18.9628 64.5016 16.7169 64.5016 13.5685C64.5016 10.5251 66.9964 8.04834 70.267 8.04834C73.621 8.04834 76.0318 10.3781 76.0318 13.5895V17.7454C76.0318 21.5234 73.4116 24.0001 69.9526 24.0001ZM70.204 15.4156C71.3362 15.4156 72.1954 14.639 72.1954 13.4846C72.1954 12.3511 71.3362 11.5955 70.204 11.5955C69.0928 11.5955 68.2126 12.3511 68.2126 13.4846C68.2126 14.639 69.0928 15.4156 70.204 15.4156Z" fill="#9CA3AF"/>
<path d="M58.099 19.1726C54.8287 19.1726 52.334 16.6538 52.334 13.5895C52.334 10.546 54.8287 8.02734 58.099 8.02734C61.3691 8.02734 63.8639 10.546 63.8639 13.5895C63.8639 16.6538 61.3691 19.1726 58.099 19.1726ZM58.099 15.6254C59.2939 15.6254 60.0905 14.7019 60.0905 13.6105C60.0905 12.498 59.2939 11.5745 58.099 11.5745C56.9041 11.5745 56.1074 12.498 56.1074 13.6105C56.1074 14.7019 56.9041 15.6254 58.099 15.6254Z" fill="#9CA3AF"/>
<path d="M45.4639 4.68994V15.2895H51.7111V18.8576H44.9398C42.5499 18.8576 41.5856 17.5983 41.5856 15.6043V4.68994H45.4639Z" fill="#9CA3AF"/>
</g>
<defs>
<clipPath id="clip0_7608_4857">
<rect width="149.4" height="24" fill="white" transform="translate(0.377808)"/>
</clipPath>
</defs>
</svg>
