<svg width="122" height="24" viewBox="0 0 122 24" fill="none" xmlns="http://www.w3.org/2000/svg">
<g clip-path="url(#clip0_7608_4833)">
<path fill-rule="evenodd" clip-rule="evenodd" d="M15.8449 7.01118C14.8582 6.3519 13.6982 6 12.5115 6V0C14.8848 0 17.2049 0.703788 19.1783 2.02237C21.1517 3.34094 22.6898 5.21509 23.598 7.40778C24.5063 9.60048 24.7439 12.0133 24.2809 14.3411C23.8179 16.6688 22.675 18.8071 20.9967 20.4853C19.3185 22.1635 17.1803 23.3064 14.8526 23.7694C12.5248 24.2324 10.112 23.9948 7.91925 23.0866C5.72655 22.1783 3.85241 20.6402 2.53384 18.6668C1.21526 16.6934 0.511475 14.3734 0.511475 12H6.51147C6.51147 13.1867 6.86337 14.3467 7.52266 15.3334C8.18193 16.3201 9.11902 17.0891 10.2154 17.5433C11.3117 17.9974 12.5181 18.1162 13.682 17.8847C14.8459 17.6532 15.915 17.0818 16.7541 16.2427C17.5932 15.4035 18.1647 14.3344 18.3962 13.1705C18.6277 12.0067 18.5089 10.8002 18.0548 9.70392C17.6006 8.60754 16.8316 7.67046 15.8449 7.01118Z" fill="#9CA3AF"/>
<path fill-rule="evenodd" clip-rule="evenodd" d="M6.51147 3.17096e-06C6.51147 0.787934 6.35628 1.56815 6.05475 2.29611C5.75322 3.02406 5.31127 3.68549 4.75411 4.24264C4.19697 4.7998 3.53553 5.24175 2.80758 5.54328C2.07962 5.84481 1.2994 6 0.511475 6L0.511475 12C2.08734 12 3.64777 11.6896 5.10368 11.0866C6.55959 10.4835 7.88247 9.59958 8.99673 8.48526C10.1111 7.371 10.995 6.04812 11.598 4.5922C12.2011 3.13629 12.5115 1.57586 12.5115 0L6.51147 3.17096e-06Z" fill="#9CA3AF"/>
<path d="M75.882 8.67065H72.9708V17.918H75.882V8.67065Z" fill="#9CA3AF"/>
<path d="M73.2963 6.93991C73.6005 7.24435 73.9809 7.39657 74.4375 7.39657C74.8941 7.39657 75.2685 7.24435 75.5601 6.93991C75.8523 6.62281 75.9981 6.24223 75.9981 5.79826C75.9981 5.34161 75.8523 4.96105 75.5601 4.65662C75.2685 4.35217 74.8941 4.19995 74.4375 4.19995C73.9809 4.19995 73.6005 4.35217 73.2963 4.65662C73.0041 4.96105 72.8583 5.34161 72.8583 5.79826C72.8583 6.24223 73.0041 6.62281 73.2963 6.93991Z" fill="#9CA3AF"/>
<path d="M31.2052 17.9193V4.48584H34.1925V15.2935H40.1482V17.9193H31.2052Z" fill="#9CA3AF"/>
<path fill-rule="evenodd" clip-rule="evenodd" d="M45.5278 18.1282C44.5765 18.1282 43.7139 17.9189 42.9401 17.5003C42.179 17.069 41.5765 16.4855 41.1325 15.7497C40.6885 15.014 40.4666 14.1895 40.4666 13.2761C40.4666 12.3628 40.6885 11.5447 41.1325 10.8216C41.5765 10.0985 42.179 9.5277 42.9401 9.10914C43.7012 8.6778 44.5638 8.46216 45.5278 8.46216C46.4919 8.46216 47.3545 8.6715 48.1156 9.09006C48.8767 9.50868 49.4793 10.0859 49.9232 10.8216C50.3672 11.5447 50.5892 12.3628 50.5892 13.2761C50.5892 14.1895 50.3672 15.014 49.9232 15.7497C49.4793 16.4855 48.8767 17.069 48.1156 17.5003C47.3545 17.9189 46.4919 18.1282 45.5278 18.1282ZM45.5278 15.4834C45.9465 15.4834 46.3143 15.3946 46.6315 15.217C46.9486 15.0267 47.1896 14.7667 47.3545 14.4368C47.5321 14.0944 47.6209 13.7074 47.6209 13.2761C47.6209 12.8449 47.5321 12.4706 47.3545 12.1535C47.1769 11.8237 46.9296 11.57 46.6124 11.3924C46.308 11.2021 45.9465 11.107 45.5278 11.107C45.1219 11.107 44.7605 11.2021 44.4433 11.3924C44.1262 11.57 43.8788 11.8237 43.7012 12.1535C43.5236 12.4834 43.4349 12.8639 43.4349 13.2952C43.4349 13.7138 43.5236 14.0944 43.7012 14.4368C43.8788 14.7667 44.1262 15.0267 44.4433 15.217C44.7605 15.3946 45.1219 15.4834 45.5278 15.4834Z" fill="#9CA3AF"/>
<path fill-rule="evenodd" clip-rule="evenodd" d="M52.8954 21.5349C53.6692 21.89 54.5635 22.0676 55.5783 22.0676C56.5677 22.0676 57.4493 21.871 58.2231 21.4778C58.9969 21.0845 59.6057 20.5391 60.0497 19.8414C60.4937 19.1438 60.716 18.3192 60.716 17.3678V8.67225H57.8615V9.29355C57.6493 9.11487 57.4082 8.96487 57.1385 8.84349C56.6438 8.60247 56.0793 8.48193 55.4451 8.48193C54.5952 8.48193 53.8404 8.68491 53.1808 9.09081C52.5211 9.48405 52.0011 10.0295 51.6205 10.7272C51.2399 11.4122 51.0497 12.186 51.0497 13.0486C51.0497 13.8985 51.2399 14.6723 51.6205 15.3699C52.0011 16.0676 52.5211 16.6194 53.1808 17.0253C53.8404 17.4312 54.5952 17.6342 55.4451 17.6342C56.0666 17.6342 56.6311 17.5137 57.1385 17.2727C57.3843 17.156 57.6063 17.0184 57.8045 16.8599V17.444C57.8045 18.0909 57.5952 18.5919 57.1766 18.9471C56.7707 19.3023 56.2062 19.4799 55.4831 19.4799C54.8996 19.4799 54.3986 19.3784 53.98 19.1754C53.5741 18.9725 53.2061 18.6744 52.8763 18.2811L51.0878 20.0697C51.5317 20.704 52.1343 21.1924 52.8954 21.5349ZM57.0434 14.7801C56.7516 14.9577 56.4028 15.0465 55.9969 15.0465C55.591 15.0465 55.2358 14.9577 54.9313 14.7801C54.6395 14.6025 54.4112 14.3615 54.2464 14.057C54.0814 13.7399 53.999 13.4037 53.999 13.0486C53.999 12.668 54.0814 12.3255 54.2464 12.0211C54.4112 11.7167 54.6459 11.4756 54.9503 11.298C55.2548 11.1204 55.6036 11.0316 55.9969 11.0316C56.4028 11.0316 56.7516 11.1204 57.0434 11.298C57.3478 11.4756 57.5761 11.7167 57.7284 12.0211C57.8933 12.3255 57.9757 12.668 57.9757 13.0486C57.9757 13.4291 57.8933 13.7716 57.7284 14.076C57.5761 14.3678 57.3478 14.6025 57.0434 14.7801Z" fill="#9CA3AF"/>
<path fill-rule="evenodd" clip-rule="evenodd" d="M66.8422 18.1282C65.8906 18.1282 65.0278 17.9189 64.2544 17.5003C63.493 17.069 62.8906 16.4855 62.4466 15.7497C62.0026 15.014 61.7806 14.1895 61.7806 13.2761C61.7806 12.3628 62.0026 11.5447 62.4466 10.8216C62.8906 10.0985 63.493 9.5277 64.2544 9.10914C65.0152 8.6778 65.878 8.46216 66.8422 8.46216C67.8058 8.46216 68.6686 8.6715 69.4294 9.09006C70.1908 9.50868 70.7932 10.0859 71.2372 10.8216C71.6812 11.5447 71.9032 12.3628 71.9032 13.2761C71.9032 14.1895 71.6812 15.014 71.2372 15.7497C70.7932 16.4855 70.1908 17.069 69.4294 17.5003C68.6686 17.9189 67.8058 18.1282 66.8422 18.1282ZM66.8422 15.4834C67.2604 15.4834 67.6282 15.3946 67.9456 15.217C68.2624 15.0267 68.5036 14.7667 68.6686 14.4368C68.8462 14.0944 68.935 13.7074 68.935 13.2761C68.935 12.8449 68.8462 12.4706 68.6686 12.1535C68.491 11.8237 68.2438 11.57 67.9264 11.3924C67.6222 11.2021 67.2604 11.107 66.8422 11.107C66.436 11.107 66.0742 11.2021 65.7574 11.3924C65.44 11.57 65.1928 11.8237 65.0152 12.1535C64.8376 12.4834 64.7488 12.8639 64.7488 13.2952C64.7488 13.7138 64.8376 14.0944 65.0152 14.4368C65.1928 14.7667 65.44 15.0267 65.7574 15.217C66.0742 15.3946 66.436 15.4834 66.8422 15.4834Z" fill="#9CA3AF"/>
<path fill-rule="evenodd" clip-rule="evenodd" d="M82.8803 18.1099C82.2593 18.1099 81.6881 17.9894 81.1679 17.7484C80.8943 17.6216 80.6471 17.4701 80.4263 17.2941V21.8203H77.5529V8.67225H80.4641V9.31047C80.6753 9.13773 80.9099 8.98839 81.1679 8.86251C81.6881 8.60877 82.2593 8.48193 82.8803 8.48193C83.7557 8.48193 84.5297 8.69127 85.2017 9.10989C85.8869 9.52845 86.4197 10.0993 86.8001 10.8224C87.1937 11.5454 87.3899 12.3699 87.3899 13.2959C87.3899 14.222 87.1937 15.0465 86.8001 15.7695C86.4197 16.4926 85.8869 17.0634 85.2017 17.482C84.5297 17.9006 83.7557 18.1099 82.8803 18.1099ZM82.3481 15.4841C82.7663 15.4841 83.1281 15.389 83.4323 15.1987C83.7497 15.0084 83.9969 14.7483 84.1745 14.4186C84.3521 14.0888 84.4409 13.7145 84.4409 13.2959C84.4409 12.8646 84.3521 12.4841 84.1745 12.1543C83.9969 11.8245 83.7497 11.5708 83.4323 11.3932C83.1281 11.2029 82.7729 11.1078 82.3667 11.1078C81.9611 11.1078 81.5993 11.2029 81.2825 11.3932C80.9777 11.5708 80.7371 11.8245 80.5595 12.1543C80.3819 12.4841 80.2931 12.8646 80.2931 13.2959C80.2931 13.7145 80.3753 14.0888 80.5403 14.4186C80.7179 14.7483 80.9651 15.0084 81.2825 15.1987C81.5993 15.389 81.9545 15.4841 82.3481 15.4841Z" fill="#9CA3AF"/>
<path d="M90.2391 17.9376C90.7719 18.0771 91.3107 18.1469 91.8561 18.1469C93.0105 18.1469 93.9237 17.8805 94.5963 17.3477C95.2809 16.815 95.6235 16.0983 95.6235 15.1976C95.6235 14.6141 95.5161 14.1447 95.3001 13.7896C95.0847 13.4217 94.8057 13.13 94.4631 12.9143C94.1205 12.6987 93.7587 12.5274 93.3783 12.4005C92.9979 12.2737 92.6361 12.1659 92.2941 12.0771C91.9515 11.9883 91.6725 11.8868 91.4565 11.7726C91.2411 11.6585 91.1331 11.5062 91.1331 11.316C91.1331 11.1384 91.2159 11.0052 91.3803 10.9164C91.5453 10.8149 91.7925 10.7642 92.1225 10.7642C92.4651 10.7642 92.8137 10.8339 93.1689 10.9735C93.5367 11.113 93.8667 11.3541 94.1583 11.6966L95.8137 10.0221C95.3955 9.48934 94.8501 9.08974 94.1775 8.8234C93.5181 8.54434 92.7951 8.40479 92.0085 8.40479C91.2603 8.40479 90.6069 8.53163 90.0489 8.78531C89.4903 9.03905 89.0589 9.38789 88.7547 9.83183C88.4505 10.2631 88.2981 10.7769 88.2981 11.3731C88.2981 11.9312 88.4061 12.3942 88.6215 12.7621C88.8369 13.1172 89.1165 13.3964 89.4585 13.5993C89.8011 13.8023 90.1629 13.9608 90.5433 14.075C90.9237 14.1891 91.2855 14.297 91.6281 14.3985C91.9701 14.4873 92.2497 14.5951 92.4651 14.7219C92.6937 14.8361 92.8077 15.0074 92.8077 15.2357C92.8077 15.4133 92.7123 15.5528 92.5221 15.6543C92.3445 15.7557 92.0847 15.8065 91.7421 15.8065C91.2471 15.8065 90.7905 15.7177 90.3723 15.5401C89.9535 15.3498 89.5917 15.0898 89.2875 14.76L87.6321 16.4344C87.9495 16.7769 88.3299 17.0814 88.7739 17.3477C89.2305 17.6014 89.7189 17.798 90.2391 17.9376Z" fill="#9CA3AF"/>
<path d="M100.933 18.1273C100.083 18.1273 99.3283 17.9561 98.6689 17.6136C98.0215 17.2584 97.5145 16.7764 97.1467 16.1675C96.7783 15.5459 96.5947 14.8356 96.5947 14.0364V8.67065H99.5059V13.9984C99.5059 14.3155 99.5563 14.5882 99.6583 14.8165C99.7723 15.0449 99.9373 15.2225 100.153 15.3493C100.369 15.4762 100.628 15.5396 100.933 15.5396C101.364 15.5396 101.707 15.4064 101.96 15.14C102.214 14.8609 102.341 14.4804 102.341 13.9984V8.67065H105.252V14.0174C105.252 14.8292 105.068 15.5459 104.7 16.1675C104.332 16.7764 103.825 17.2584 103.178 17.6136C102.531 17.9561 101.783 18.1273 100.933 18.1273Z" fill="#9CA3AF"/>
<path d="M109.61 8.67225H106.699V17.9196H109.61V12.5158C109.61 12.1987 109.673 11.9323 109.8 11.7167C109.94 11.501 110.124 11.3361 110.352 11.222C110.581 11.0951 110.84 11.0316 111.132 11.0316C111.551 11.0316 111.899 11.1648 112.178 11.4312C112.471 11.6849 112.616 12.0465 112.616 12.5158V17.9196H115.528V12.5158C115.528 12.1987 115.591 11.9323 115.718 11.7167C115.858 11.501 116.041 11.3361 116.27 11.222C116.498 11.0951 116.758 11.0316 117.05 11.0316C117.469 11.0316 117.817 11.1648 118.096 11.4312C118.388 11.6849 118.534 12.0465 118.534 12.5158V17.9196H121.445V12.1923C121.445 11.4186 121.28 10.7589 120.95 10.2135C120.633 9.65529 120.196 9.23037 119.638 8.93865C119.092 8.63415 118.464 8.48193 117.754 8.48193C117.031 8.48193 116.377 8.64051 115.794 8.95767C115.415 9.15969 115.084 9.42045 114.8 9.73989C114.535 9.40575 114.214 9.13233 113.834 8.91957C113.327 8.62785 112.75 8.48193 112.103 8.48193C111.418 8.48193 110.803 8.62785 110.257 8.91957C110.02 9.04095 109.804 9.18633 109.61 9.35571V8.67225Z" fill="#9CA3AF"/>
</g>
<defs>
<clipPath id="clip0_7608_4833">
<rect width="121.2" height="24" fill="white" transform="translate(0.511108)"/>
</clipPath>
</defs>
</svg>
