<svg width="144" height="24" viewBox="0 0 144 24" fill="none" xmlns="http://www.w3.org/2000/svg">
<g clip-path="url(#clip0_7608_4819)">
<path d="M125.645 19.278V7.33077H128.776V9.45735H128.925C129.175 8.75204 129.591 8.19635 130.175 7.79028C130.759 7.38422 131.454 7.18115 132.259 7.18115C133.078 7.18115 133.773 7.38779 134.342 7.801C134.92 8.20706 135.304 8.75918 135.497 9.45735H135.625C135.867 8.76632 136.309 8.21421 136.95 7.801C137.591 7.38779 138.346 7.18115 139.215 7.18115C140.326 7.18115 141.231 7.53384 141.929 8.23914C142.635 8.94439 142.987 9.94537 142.987 11.242V19.278H139.675V11.9045C139.675 11.2348 139.497 10.7361 139.14 10.4085C138.791 10.0807 138.353 9.91686 137.826 9.91686C137.227 9.91686 136.757 10.1092 136.416 10.4939C136.081 10.8715 135.913 11.3702 135.913 11.99V19.278H132.708V11.819C132.708 11.242 132.54 10.7824 132.206 10.4405C131.871 10.0914 131.433 9.91686 130.892 9.91686C130.521 9.91686 130.19 10.0095 129.898 10.1947C129.606 10.3799 129.374 10.6364 129.203 10.9641C129.032 11.2847 128.947 11.6694 128.947 12.1182V19.278H125.645Z" fill="#9CA3AF"/>
<path d="M120.936 14.2014V7.33008H124.237V19.2773H121.064V17.108H120.936C120.665 17.7991 120.22 18.3619 119.6 18.7965C118.98 19.224 118.222 19.4341 117.324 19.427C116.526 19.427 115.821 19.2489 115.208 18.8926C114.603 18.5293 114.129 18.0128 113.787 17.3431C113.452 16.6735 113.285 15.872 113.285 14.9387V7.33008H116.587V14.3617C116.587 15.0598 116.775 15.6155 117.153 16.0287C117.531 16.4348 118.033 16.6343 118.66 16.6271C119.059 16.6271 119.429 16.5381 119.771 16.36C120.113 16.1748 120.391 15.9005 120.604 15.5371C120.825 15.1738 120.936 14.7286 120.936 14.2014Z" fill="#9CA3AF"/>
<path d="M112.165 10.7397L109.141 10.9213C109.062 10.5438 108.852 10.2197 108.511 9.94894C108.169 9.67106 107.709 9.53216 107.132 9.53216C106.619 9.53216 106.189 9.63904 105.839 9.85276C105.497 10.0665 105.326 10.3514 105.326 10.7076C105.326 10.9926 105.437 11.2384 105.658 11.445C105.885 11.6445 106.274 11.8012 106.823 11.9152L108.992 12.3427C110.153 12.5778 111.018 12.9589 111.588 13.4861C112.158 14.0132 112.443 14.7079 112.443 15.5699C112.443 16.3607 112.215 17.0518 111.759 17.643C111.303 18.2272 110.676 18.6868 109.878 19.0216C109.081 19.3493 108.165 19.5132 107.132 19.5132C105.551 19.5132 104.29 19.1819 103.35 18.5193C102.416 17.8568 101.871 16.9591 101.715 15.8264L104.952 15.6554C105.06 16.1398 105.301 16.5067 105.679 16.7561C106.057 17.0054 106.541 17.1301 107.132 17.1301C107.709 17.1301 108.176 17.0161 108.532 16.7881C108.895 16.5602 109.077 16.2716 109.077 15.9225C109.077 15.3313 108.564 14.9323 107.538 14.7257L105.476 14.2983C104.315 14.0631 103.449 13.6606 102.879 13.0907C102.31 12.5207 102.025 11.7905 102.025 10.9C102.025 10.1306 102.235 9.46806 102.655 8.91237C103.075 8.35668 103.663 7.92919 104.418 7.63001C105.181 7.33077 106.071 7.18115 107.089 7.18115C108.6 7.18115 109.786 7.50176 110.648 8.14297C111.517 8.77698 112.022 9.64256 112.165 10.7397Z" fill="#9CA3AF"/>
<path d="M89.7163 23.7449V7.33077H92.9648V9.35052H93.114C93.2639 9.02277 93.4775 8.69151 93.7555 8.35668C94.0329 8.02185 94.3964 7.74398 94.8453 7.52312C95.2943 7.29518 95.8497 7.18115 96.5123 7.18115C97.3885 7.18115 98.1898 7.40915 98.9162 7.86509C99.6501 8.31389 100.238 8.99426 100.679 9.90621C101.121 10.8181 101.342 11.958 101.342 13.3258C101.342 14.6509 101.128 15.7729 100.701 16.6919C100.273 17.6039 99.6929 18.2949 98.9589 18.7651C98.2325 19.2353 97.4131 19.4704 96.5012 19.4704C95.8603 19.4704 95.3154 19.3636 94.8664 19.1498C94.4181 18.9361 94.0511 18.669 93.766 18.3484C93.488 18.0206 93.2709 17.6929 93.114 17.3652H93.018V23.7449H89.7163ZM95.4541 16.8416C95.9955 16.8416 96.4514 16.6919 96.8219 16.3928C97.1924 16.0935 97.474 15.6803 97.6659 15.1531C97.8585 14.6188 97.9545 14.0062 97.9545 13.3151C97.9545 12.6241 97.8585 12.0185 97.6659 11.4985C97.481 10.9712 97.203 10.5581 96.8325 10.2588C96.462 9.95959 96.0025 9.81003 95.4541 9.81003C94.9203 9.81003 94.4643 9.95602 94.0868 10.2481C93.7163 10.5331 93.4313 10.9392 93.2317 11.4664C93.0397 11.9864 92.9431 12.6027 92.9431 13.3151C92.9431 14.0204 93.0432 14.6367 93.2422 15.1638C93.4418 15.691 93.7268 16.1042 94.0973 16.4034C94.4748 16.6955 94.9273 16.8416 95.4541 16.8416Z" fill="#9CA3AF"/>
<path d="M85.007 19.2777V7.33045H88.309V19.2777H85.007ZM86.6525 5.80233C86.1607 5.80233 85.7404 5.63847 85.3916 5.31076C85.0427 4.98305 84.8683 4.58765 84.8683 4.12458C84.8683 3.66151 85.0427 3.26968 85.3916 2.94909C85.7404 2.62138 86.1607 2.45752 86.6525 2.45752C87.1512 2.45752 87.575 2.62138 87.9245 2.94909C88.2733 3.26968 88.4478 3.66151 88.4478 4.12458C88.4478 4.58765 88.2733 4.98305 87.9245 5.31076C87.575 5.63847 87.1512 5.80233 86.6525 5.80233Z" fill="#9CA3AF"/>
<path d="M78.2127 19.5132C77.0087 19.5132 75.9651 19.2567 75.0819 18.7437C74.2057 18.2237 73.5291 17.5041 73.0515 16.5851C72.5815 15.6589 72.3468 14.5832 72.3468 13.3579C72.3468 12.1182 72.5815 11.0389 73.0515 10.1199C73.5291 9.19376 74.2057 8.47423 75.0819 7.96127C75.9651 7.44123 77.0087 7.18115 78.2127 7.18115C79.4237 7.18115 80.4673 7.44123 81.3435 7.96127C82.2267 8.47423 82.9034 9.19376 83.3734 10.1199C83.851 11.0389 84.0898 12.1182 84.0898 13.3579C84.0898 14.5832 83.851 15.6589 83.3734 16.5851C82.9034 17.5041 82.2267 18.2237 81.3435 18.7437C80.4673 19.2567 79.4237 19.5132 78.2127 19.5132ZM78.2338 16.9271C78.7828 16.9271 79.2423 16.7739 79.6122 16.4676C79.9827 16.1541 80.2607 15.7266 80.4457 15.1852C80.6382 14.6437 80.7342 14.0275 80.7342 13.3364C80.7342 12.6383 80.6382 12.0221 80.4457 11.4877C80.2607 10.9534 79.9827 10.5331 79.6122 10.2268C79.2423 9.92043 78.7828 9.76724 78.2338 9.76724C77.6783 9.76724 77.2118 9.92043 76.8343 10.2268C76.4638 10.5331 76.1823 10.9534 75.9903 11.4877C75.8048 12.0221 75.7123 12.6383 75.7123 13.3364C75.7123 14.0275 75.8048 14.6437 75.9903 15.1852C76.1823 15.7266 76.4638 16.1541 76.8343 16.4676C77.2118 16.7739 77.6783 16.9271 78.2338 16.9271Z" fill="#9CA3AF"/>
<path d="M65.6069 24.0014C63.9967 24.0014 62.736 23.6808 61.824 23.0396C60.9121 22.4056 60.3567 21.6148 60.1571 20.6673L63.2136 20.2612C63.306 20.5034 63.4518 20.7278 63.6514 20.9344C63.851 21.141 64.1179 21.3049 64.4527 21.426C64.7875 21.5542 65.1972 21.6183 65.6818 21.6183C66.4011 21.6183 66.9958 21.4438 67.4658 21.0947C67.9364 20.7527 68.1711 20.1721 68.1711 19.3528V17.1622H68.0324C67.8896 17.4899 67.6724 17.8033 67.3804 18.1026C67.0883 18.4018 66.7143 18.644 66.2583 18.8292C65.8024 19.0144 65.2575 19.107 64.6236 19.107C63.7263 19.107 62.9104 18.9005 62.177 18.4873C61.45 18.067 60.8659 17.4258 60.4246 16.5637C59.9897 15.7017 59.7726 14.6117 59.7726 13.2937C59.7726 11.933 59.9932 10.8003 60.4351 9.89549C60.8841 8.99069 61.4752 8.31389 62.2086 7.86509C62.9426 7.40915 63.7474 7.18115 64.6236 7.18115C65.2932 7.18115 65.8527 7.29518 66.3011 7.52312C66.757 7.74398 67.1275 8.02185 67.4126 8.35668C67.6976 8.69151 67.9112 9.02277 68.0535 9.35052H68.1816V7.33077H71.4406V19.4063C71.4406 20.4179 71.1913 21.2657 70.6932 21.9496C70.1945 22.6335 69.5068 23.1465 68.6306 23.4884C67.7544 23.8304 66.7465 24.0014 65.6069 24.0014ZM65.6707 16.6172C66.4685 16.6172 67.0848 16.3215 67.5197 15.7302C67.961 15.1389 68.1816 14.3196 68.1816 13.2724C68.1816 12.5742 68.0821 11.9686 67.8826 11.4557C67.6906 10.9356 67.409 10.5331 67.0385 10.2481C66.668 9.95602 66.2121 9.81003 65.6707 9.81003C65.1293 9.81003 64.6698 9.95959 64.2923 10.2588C63.9218 10.5509 63.6408 10.957 63.4483 11.477C63.2563 11.9971 63.1597 12.5956 63.1597 13.2724C63.1597 13.9563 63.2563 14.5511 63.4483 15.057C63.6408 15.5557 63.9218 15.9404 64.2923 16.2111C64.6698 16.4818 65.1293 16.6172 65.6707 16.6172Z" fill="#9CA3AF"/>
<path d="M53.4712 19.5132C52.2673 19.5132 51.2237 19.2567 50.3404 18.7437C49.4642 18.2237 48.7875 17.5041 48.3102 16.5851C47.8401 15.6589 47.605 14.5832 47.605 13.3579C47.605 12.1182 47.8401 11.0389 48.3102 10.1199C48.7875 9.19376 49.4642 8.47423 50.3404 7.96127C51.2237 7.44123 52.2673 7.18115 53.4712 7.18115C54.6821 7.18115 55.7257 7.44123 56.602 7.96127C57.4852 8.47423 58.162 9.19376 58.6321 10.1199C59.1095 11.0389 59.3483 12.1182 59.3483 13.3579C59.3483 14.5832 59.1095 15.6589 58.6321 16.5851C58.162 17.5041 57.4852 18.2237 56.602 18.7437C55.7257 19.2567 54.6821 19.5132 53.4712 19.5132ZM53.4925 16.9271C54.0411 16.9271 54.5005 16.7739 54.8709 16.4676C55.2413 16.1541 55.5192 15.7266 55.7044 15.1852C55.8967 14.6437 55.9929 14.0275 55.9929 13.3364C55.9929 12.6383 55.8967 12.0221 55.7044 11.4877C55.5192 10.9534 55.2413 10.5331 54.8709 10.2268C54.5005 9.92043 54.0411 9.76724 53.4925 9.76724C52.9369 9.76724 52.4703 9.92043 52.0928 10.2268C51.7224 10.5331 51.441 10.9534 51.2486 11.4877C51.0634 12.0221 50.9708 12.6383 50.9708 13.3364C50.9708 14.0275 51.0634 14.6437 51.2486 15.1852C51.441 15.7266 51.7224 16.1541 52.0928 16.4676C52.4703 16.7739 52.9369 16.9271 53.4925 16.9271Z" fill="#9CA3AF"/>
<path d="M36.9854 19.2765V3.354H40.3406V16.4981H47.1684V19.2765H36.9854Z" fill="#9CA3AF"/>
<path d="M21.9984 23.4146C25.7636 23.3379 28.7911 20.2579 28.7911 16.4716C28.7911 14.6301 28.0602 12.8641 26.759 11.562L15.2058 0V7.1866C15.2058 8.38847 15.6829 9.54117 16.5322 10.3911L19.2386 13.0996L19.246 13.1068L23.7839 17.6482C23.9313 17.7957 23.9313 18.0348 23.7839 18.1822C23.6366 18.3297 23.3976 18.3297 23.2503 18.1822L21.6861 16.6168H7.21612L5.65191 18.1822C5.50454 18.3297 5.26561 18.3297 5.11824 18.1822C4.97086 18.0348 4.97086 17.7957 5.11823 17.6482L9.6562 13.1068L9.66357 13.0996L12.37 10.3911C13.2192 9.54117 13.6963 8.38847 13.6963 7.1866V0L2.14312 11.562C0.842026 12.8641 0.111084 14.6301 0.111084 16.4716C0.111084 20.2579 3.13859 23.3379 6.90374 23.4146H21.9984Z" fill="#9CA3AF"/>
</g>
<defs>
<clipPath id="clip0_7608_4819">
<rect width="143.4" height="24" fill="white" transform="translate(0.111084)"/>
</clipPath>
</defs>
</svg>
