<svg width="128" height="24" viewBox="0 0 128 24" fill="none" xmlns="http://www.w3.org/2000/svg">
<g clip-path="url(#clip0_7608_4846)">
<path d="M34.9907 18.4725H44.3191V15.6628H38.3062V5.07935H34.9907V18.4725Z" fill="#9CA3AF"/>
<path d="M49.8467 16.5996C48.5167 16.5996 47.8236 15.4382 47.8236 13.6962C47.8236 11.9541 48.5167 10.774 49.8467 10.774C51.1766 10.774 51.8884 11.9541 51.8884 13.6962C51.8884 15.4382 51.1766 16.5996 49.8467 16.5996ZM49.8654 18.7725C52.9561 18.7725 54.9792 16.5808 54.9792 13.6962C54.9792 10.8115 52.9561 8.61987 49.8654 8.61987C46.7934 8.61987 44.7329 10.8115 44.7329 13.6962C44.7329 16.5808 46.7934 18.7725 49.8654 18.7725Z" fill="#9CA3AF"/>
<path d="M60.3289 21.7887C61.7525 21.7887 63.0076 21.4702 63.8505 20.721C64.6185 20.0279 65.1242 18.9789 65.1242 17.5366V8.88254H62.2021V9.91278H62.1646C61.6027 9.10732 60.741 8.60156 59.4673 8.60156C57.0883 8.60156 55.4399 10.5871 55.4399 13.3969C55.4399 16.3378 57.4442 17.9487 59.5984 17.9487C60.7597 17.9487 61.4903 17.4804 62.0522 16.8435H62.1272V17.7988C62.1272 18.9602 61.5839 19.6345 60.2915 19.6345C59.2799 19.6345 58.7742 19.2037 58.6056 18.698H55.646C55.9457 20.7022 57.6877 21.7887 60.3289 21.7887ZM60.3102 15.6821C59.1675 15.6821 58.4183 14.7456 58.4183 13.3032C58.4183 11.8421 59.1675 10.9056 60.3102 10.9056C61.5839 10.9056 62.2583 11.992 62.2583 13.2845C62.2583 14.6332 61.6401 15.6821 60.3102 15.6821Z" fill="#9CA3AF"/>
<path d="M71.1332 16.5996C69.8032 16.5996 69.1101 15.4382 69.1101 13.6962C69.1101 11.9541 69.8032 10.774 71.1332 10.774C72.4631 10.774 73.1749 11.9541 73.1749 13.6962C73.1749 15.4382 72.4631 16.5996 71.1332 16.5996ZM71.1519 18.7725C74.2426 18.7725 76.2659 16.5808 76.2659 13.6962C76.2659 10.8115 74.2426 8.61987 71.1519 8.61987C68.0799 8.61987 66.0194 10.8115 66.0194 13.6962C66.0194 16.5808 68.0799 18.7725 71.1519 18.7725Z" fill="#9CA3AF"/>
<path d="M77.1574 18.4725H80.2107V8.88188H77.1574V18.4725ZM77.1574 7.55193H80.2107V5.07935H77.1574V7.55193Z" fill="#9CA3AF"/>
<path d="M81.535 21.6388H84.5883V17.4804H84.6258C85.2252 18.2859 86.1056 18.7729 87.3419 18.7729C89.8519 18.7729 91.519 16.7873 91.519 13.6779C91.519 10.7932 89.9643 8.60156 87.4168 8.60156C86.1056 8.60156 85.169 9.18225 84.5134 10.0439H84.4572V8.88254H81.535V21.6388ZM86.5551 16.4127C85.2439 16.4127 84.4946 15.345 84.4946 13.7902C84.4946 12.2355 85.169 11.0554 86.4989 11.0554C87.8102 11.0554 88.4283 12.1419 88.4283 13.7902C88.4283 15.4199 87.7165 16.4127 86.5551 16.4127Z" fill="#9CA3AF"/>
<path d="M96.4909 18.7729C99.0009 18.7729 100.855 17.6864 100.855 15.5885C100.855 13.1346 98.8698 12.7038 97.1839 12.4228C95.9664 12.1981 94.8799 12.1044 94.8799 11.4301C94.8799 10.8306 95.4606 10.5497 96.2099 10.5497C97.0528 10.5497 97.6335 10.8119 97.7459 11.6736H100.556C100.406 9.78166 98.9447 8.60156 96.2286 8.60156C93.9621 8.60156 92.0889 9.65054 92.0889 11.6736C92.0889 13.9214 93.8684 14.3709 95.5355 14.6519C96.8093 14.8767 97.9707 14.9703 97.9707 15.832C97.9707 16.4501 97.39 16.7873 96.4721 16.7873C95.4606 16.7873 94.8237 16.319 94.7113 15.3637H91.8267C91.9203 17.4804 93.6811 18.7729 96.4909 18.7729Z" fill="#9CA3AF"/>
<path d="M105.002 18.7544C106.332 18.7544 107.175 18.2299 107.868 17.2933H107.924V18.4734H110.846V8.88281H107.793V14.2401C107.793 15.3827 107.156 16.1694 106.107 16.1694C105.133 16.1694 104.665 15.5888 104.665 14.5398V8.88281H101.63V15.1767C101.63 17.3121 102.791 18.7544 105.002 18.7544Z" fill="#9CA3AF"/>
<path d="M112.176 18.4732H115.229V13.0972C115.229 11.9545 115.791 11.1491 116.746 11.1491C117.664 11.1491 118.095 11.7485 118.095 12.7787V18.4732H121.148V13.0972C121.148 11.9545 121.691 11.1491 122.665 11.1491C123.583 11.1491 124.014 11.7485 124.014 12.7787V18.4732H127.067V12.2355C127.067 10.0814 125.981 8.60156 123.808 8.60156C122.572 8.60156 121.542 9.12605 120.792 10.2874H120.755C120.268 9.25717 119.312 8.60156 118.057 8.60156C116.671 8.60156 115.753 9.25717 115.154 10.25H115.098V8.88254H112.176V18.4732Z" fill="#9CA3AF"/>
<path fill-rule="evenodd" clip-rule="evenodd" d="M6.61131 3.08021C5.84734 3.6144 5.1565 4.24599 4.55678 4.95698C7.00749 4.72945 10.121 5.10097 13.7358 6.90837C17.5959 8.83837 20.7042 8.90362 22.8675 8.48635C22.6712 7.89206 22.424 7.32089 22.1313 6.77792C19.655 7.0391 16.4803 6.69338 12.7806 4.84354C10.4312 3.66884 8.36019 3.18495 6.61131 3.08021ZM20.6848 4.71895C18.7292 2.53399 15.8873 1.15894 12.7242 1.15894C11.7953 1.15894 10.894 1.27754 10.0348 1.50042C11.1985 1.81794 12.4347 2.28247 13.7358 2.93304C16.4446 4.28741 18.7832 4.72349 20.6848 4.71895ZM23.33 10.5724C20.7165 11.0884 17.1077 10.9824 12.7806 8.81888C8.73517 6.79618 5.51538 6.82165 3.34384 7.30423C3.23175 7.32912 3.1223 7.35528 3.0155 7.38252C2.73119 8.00084 2.50424 8.65104 2.34141 9.32623C2.51533 9.27978 2.69504 9.23561 2.88046 9.19439C5.51492 8.60896 9.23718 8.63438 13.7358 10.8837C17.7812 12.9064 21.001 12.8809 23.1726 12.3984C23.247 12.3819 23.3203 12.3648 23.3924 12.3471C23.4003 12.1788 23.4042 12.0093 23.4042 11.839C23.4042 11.4104 23.379 10.9878 23.33 10.5724ZM23.0437 14.601C20.4556 15.0535 16.9519 14.8798 12.7806 12.7942C8.73517 10.7715 5.51538 10.797 3.34384 11.2796C2.86182 11.3866 2.4282 11.5171 2.04569 11.6548C2.04465 11.7161 2.04413 11.7775 2.04413 11.839C2.04413 17.7374 6.82575 22.519 12.7242 22.519C17.6675 22.519 21.8264 19.1607 23.0437 14.601Z" fill="#9CA3AF"/>
</g>
<defs>
<clipPath id="clip0_7608_4846">
<rect width="126.667" height="24" fill="white" transform="translate(0.711121)"/>
</clipPath>
</defs>
</svg>
