<svg width="133" height="24" viewBox="0 0 133 24" fill="none" xmlns="http://www.w3.org/2000/svg">
<g clip-path="url(#clip0_7608_4830)">
<path d="M12.5111 24C19.1387 24 24.5111 18.6276 24.5111 12V3.6C24.5111 2.64522 24.1318 1.72955 23.4567 1.05442C22.7816 0.379285 21.8659 0 20.9111 0L13.1111 0V5.2644C13.1111 6.4656 13.1843 7.71 13.8143 8.7324C14.2653 9.46513 14.8687 10.0923 15.5834 10.5713C16.2981 11.0503 17.1075 11.37 17.9567 11.5086L18.1865 11.5458C18.2813 11.5782 18.3635 11.6394 18.4217 11.7208C18.48 11.8023 18.5113 11.8999 18.5113 12C18.5113 12.1001 18.48 12.1977 18.4217 12.2792C18.3635 12.3606 18.2813 12.4218 18.1865 12.4542L17.9567 12.4914C16.716 12.6941 15.5703 13.2813 14.6814 14.1703C13.7924 15.0592 13.2052 16.2049 13.0025 17.4456L12.9653 17.6754C12.9329 17.7701 12.8717 17.8524 12.7903 17.9106C12.7088 17.9688 12.6112 18.0002 12.5111 18.0002C12.411 18.0002 12.3134 17.9688 12.2319 17.9106C12.1505 17.8524 12.0893 17.7701 12.0569 17.6754L12.0197 17.4456C11.881 16.5965 11.5613 15.7871 11.0823 15.0723C10.6033 14.3576 9.97621 13.7542 9.24351 13.3032C8.22111 12.6732 6.97671 12.6 5.77551 12.6H0.525513C0.839313 18.9486 6.08511 24 12.5111 24Z" fill="#9CA3AF"/>
<path d="M0.511108 11.4H5.77551C6.97671 11.4 8.22111 11.3268 9.24351 10.6968C10.0427 10.2044 10.7155 9.53161 11.2079 8.7324C11.8379 7.71 11.9111 6.4656 11.9111 5.2644V0H4.11111C3.15633 0 2.24065 0.379285 1.56552 1.05442C0.890393 1.72955 0.511108 2.64522 0.511108 3.6L0.511108 11.4ZM28.3841 1.2C28.3841 1.51826 28.2577 1.82348 28.0326 2.04853C27.8076 2.27357 27.5024 2.4 27.1841 2.4C26.8659 2.4 26.5606 2.27357 26.3356 2.04853C26.1105 1.82348 25.9841 1.51826 25.9841 1.2C25.9841 0.88174 26.1105 0.576516 26.3356 0.351472C26.5606 0.126428 26.8659 0 27.1841 0C27.5024 0 27.8076 0.126428 28.0326 0.351472C28.2577 0.576516 28.3841 0.88174 28.3841 1.2ZM127.538 7.2624C130.892 7.2624 132.511 9.6054 132.511 12.3192V17.4162H129.001V12.924C129.001 11.694 128.552 10.6788 127.265 10.6788C125.978 10.6788 125.549 11.694 125.549 12.924V17.4156H122.038V12.924C122.038 11.694 121.609 10.6788 120.322 10.6788C119.035 10.6788 118.586 11.694 118.586 12.924V17.4156H115.076V12.3186C115.076 9.6048 116.694 7.2618 120.049 7.2618C121.882 7.2618 123.208 7.9842 123.813 9.1752C124.456 7.9842 125.861 7.2612 127.538 7.2612V7.2624ZM108.767 14.292C109.898 14.292 110.386 13.257 110.386 12.0264V7.6524H113.896V12.456C113.896 15.3264 112.219 17.709 108.767 17.709C105.315 17.709 103.638 15.327 103.638 12.456V7.6524H107.149V12.0264C107.149 13.2564 107.636 14.292 108.767 14.292ZM98.4761 17.7282C96.2723 17.7282 94.8485 16.9668 94.0097 15.483L96.5453 14.0574C96.8963 14.682 97.4225 14.9946 98.3003 14.9946C99.0221 14.9946 99.3533 14.7408 99.3533 14.4282C99.3533 13.2372 94.2047 14.448 94.2047 10.6602C94.2047 8.8242 95.7647 7.3404 98.4173 7.3404C100.738 7.3404 102.006 8.4726 102.572 9.5664L100.036 11.0112C99.8219 10.4256 99.1583 10.074 98.4953 10.074C97.9883 10.074 97.7153 10.2888 97.7153 10.5816C97.7153 11.7924 102.864 10.6794 102.864 14.3502C102.864 16.4004 100.855 17.7282 98.4761 17.7282ZM86.2109 21.9072H82.7003V12.5148C82.7003 9.5268 84.9431 7.3596 88.0637 7.3596C91.1063 7.3596 93.4271 9.6834 93.4271 12.5148C93.4271 15.639 91.3595 17.709 88.2587 17.709C87.5369 17.709 86.8157 17.4942 86.2109 17.1618V21.9072ZM88.0637 14.409C89.1755 14.409 89.9165 13.5498 89.9165 12.534C89.9165 11.4996 89.1755 10.6596 88.0637 10.6596C86.9519 10.6596 86.2109 11.4996 86.2109 12.5346C86.2109 13.5498 86.9519 14.409 88.0637 14.409ZM79.1837 6.618C78.0329 6.618 77.0777 5.661 77.0777 4.509C77.0777 3.357 78.0329 2.4 79.1837 2.4C80.3345 2.4 81.2903 3.357 81.2903 4.509C81.2903 5.661 80.3345 6.618 79.1837 6.618ZM77.4287 7.6524H80.9393V17.4162H77.4287V7.6524ZM70.6931 17.709C67.6505 17.709 65.3297 15.366 65.3297 12.5148C65.3297 9.6834 67.6505 7.3404 70.6931 7.3404C73.7357 7.3404 76.0565 9.6834 76.0565 12.5148C76.0565 15.366 73.7357 17.709 70.6931 17.709ZM70.6931 14.409C71.8049 14.409 72.5459 13.5498 72.5459 12.534C72.5459 11.4996 71.8049 10.6404 70.6931 10.6404C69.5813 10.6404 68.8403 11.4996 68.8403 12.534C68.8403 13.5498 69.5813 14.409 70.6931 14.409ZM58.7009 22.2C56.2829 22.2 54.5273 21.126 53.6303 19.212L56.5361 17.6502C56.8481 18.3144 57.4331 18.9978 58.6421 18.9978C59.9105 18.9978 60.7487 18.1968 60.8465 16.791C60.3785 17.2014 59.6369 17.5134 58.5257 17.5134C55.8143 17.5134 53.6297 15.4242 53.6297 12.495C53.6297 9.6642 55.9511 7.3596 58.9937 7.3596C62.1143 7.3596 64.3571 9.5274 64.3571 12.5148V16.3812C64.3571 19.896 61.9187 22.2 58.7009 22.2ZM58.9349 14.214C59.9879 14.214 60.7877 13.491 60.7877 12.417C60.7877 11.3628 59.9885 10.6596 58.9349 10.6596C57.9011 10.6596 57.0821 11.3628 57.0821 12.4176C57.0821 13.4916 57.9011 14.2134 58.9349 14.2134V14.214ZM47.6753 17.709C44.6327 17.709 42.3113 15.366 42.3113 12.5148C42.3113 9.6834 44.6327 7.3404 47.6753 7.3404C50.7173 7.3404 53.0387 9.6834 53.0387 12.5148C53.0387 15.366 50.7179 17.709 47.6753 17.709ZM47.6753 14.409C48.7871 14.409 49.5281 13.5498 49.5281 12.534C49.5281 11.4996 48.7871 10.6404 47.6753 10.6404C46.5635 10.6404 45.8225 11.4996 45.8225 12.534C45.8225 13.5498 46.5635 14.409 47.6753 14.409ZM35.9189 4.236V14.0964H41.7311V17.4162H35.4311C33.2081 17.4162 32.3111 16.2444 32.3111 14.3892V4.236H35.9189Z" fill="#9CA3AF"/>
</g>
<defs>
<clipPath id="clip0_7608_4830">
<rect width="132" height="24" fill="white" transform="translate(0.511108)"/>
</clipPath>
</defs>
</svg>
