<svg width="138" height="24" viewBox="0 0 138 24" fill="none" xmlns="http://www.w3.org/2000/svg">
<g clip-path="url(#clip0_7608_4806)">
<path d="M20.8025 18.3948H27.9093L10.3044 0.789795H3.19756L20.8025 18.3948Z" fill="#9CA3AF"/>
<path d="M13.9554 0.789796L30.9262 17.7606V0.789795H26.3336V6.14781L20.9755 0.789795L13.9554 0.789796Z" fill="#9CA3AF"/>
<path d="M0.22216 1.37939V18.3949H4.81476V13.0369L10.1727 18.3949H17.2377L0.22216 1.37939Z" fill="#9CA3AF"/>
<path d="M42.0084 15.7479H46.1233V18.1728H38.8671V5.27686H42.0084V15.7479Z" fill="#9CA3AF"/>
<path d="M51.7374 18.32C50.7332 18.32 49.8269 18.1057 49.0186 17.677C48.2225 17.2484 47.5918 16.636 47.1264 15.84C46.6733 15.0439 46.4468 14.1132 46.4468 13.0476C46.4468 11.9945 46.6794 11.0698 47.1448 10.2738C47.6102 9.46543 48.247 8.84699 49.0553 8.41835C49.8637 7.98971 50.7699 7.77539 51.7741 7.77539C52.7784 7.77539 53.6846 7.98971 54.493 8.41835C55.3013 8.84699 55.9381 9.46543 56.4035 10.2738C56.8689 11.0698 57.1015 11.9945 57.1015 13.0476C57.1015 14.1009 56.8628 15.0316 56.3851 15.84C55.9197 16.636 55.2767 17.2484 54.4562 17.677C53.6479 18.1057 52.7416 18.32 51.7374 18.32ZM51.7374 15.6012C52.3375 15.6012 52.8458 15.3807 53.2621 14.9398C53.6908 14.4989 53.9051 13.8683 53.9051 13.0476C53.9051 12.2271 53.6969 11.5964 53.2805 11.1556C52.8764 10.7147 52.3742 10.4942 51.7741 10.4942C51.1618 10.4942 50.6535 10.7147 50.2494 11.1556C49.8453 11.5842 49.6432 12.2149 49.6432 13.0476C49.6432 13.8683 49.8391 14.4989 50.231 14.9398C50.6352 15.3807 51.1373 15.6012 51.7374 15.6012Z" fill="#9CA3AF"/>
<path d="M62.1116 7.77539C62.8342 7.77539 63.4649 7.92235 64.0038 8.21628C64.5549 8.51021 64.9774 8.896 65.2713 9.3736V7.92235H68.4126V18.1547C68.4126 19.0977 68.2228 19.9488 67.8431 20.7081C67.4758 21.4796 66.9062 22.092 66.1347 22.5452C65.3754 22.9983 64.4262 23.2249 63.2873 23.2249C61.7686 23.2249 60.5379 22.8636 59.5949 22.141C58.6518 21.4307 58.113 20.4632 57.9782 19.2385H61.0829C61.1808 19.6304 61.4135 19.9365 61.7809 20.157C62.1484 20.3897 62.6014 20.506 63.1404 20.506C63.7894 20.506 64.3038 20.3163 64.6835 19.9365C65.0753 19.5692 65.2713 18.9752 65.2713 18.1547V16.7034C64.9651 17.181 64.5426 17.5729 64.0038 17.8791C63.4649 18.173 62.8342 18.32 62.1116 18.32C61.2666 18.32 60.5011 18.1057 59.8153 17.677C59.1294 17.2361 58.5845 16.6177 58.1804 15.8216C57.7885 15.0133 57.5925 14.0826 57.5925 13.0293C57.5925 11.9761 57.7885 11.0515 58.1804 10.2554C58.5845 9.45938 59.1294 8.84699 59.8153 8.41835C60.5011 7.98971 61.2666 7.77539 62.1116 7.77539ZM65.2713 13.0476C65.2713 12.2639 65.0509 11.6454 64.61 11.1923C64.1814 10.7391 63.6547 10.5125 63.0302 10.5125C62.4055 10.5125 61.8728 10.7391 61.4319 11.1923C61.0032 11.6332 60.7889 12.2455 60.7889 13.0293C60.7889 13.8132 61.0032 14.4377 61.4319 14.9031C61.8728 15.3563 62.4055 15.5828 63.0302 15.5828C63.6547 15.5828 64.1814 15.3563 64.61 14.9031C65.0509 14.45 65.2713 13.8315 65.2713 13.0476Z" fill="#9CA3AF"/>
<path d="M74.7999 18.32C73.7957 18.32 72.8895 18.1057 72.0811 17.677C71.2851 17.2484 70.6543 16.636 70.189 15.84C69.7359 15.0439 69.5093 14.1132 69.5093 13.0476C69.5093 11.9945 69.742 11.0698 70.2073 10.2738C70.6727 9.46543 71.3095 8.84699 72.1179 8.41835C72.9262 7.98971 73.8325 7.77539 74.8367 7.77539C75.8409 7.77539 76.7472 7.98971 77.5555 8.41835C78.3638 8.84699 79.0007 9.46543 79.466 10.2738C79.9314 11.0698 80.1641 11.9945 80.1641 13.0476C80.1641 14.1009 79.9253 15.0316 79.4477 15.84C78.9823 16.636 78.3393 17.2484 77.5188 17.677C76.7104 18.1057 75.8042 18.32 74.7999 18.32ZM74.7999 15.6012C75.4 15.6012 75.9083 15.3807 76.3247 14.9398C76.7534 14.4989 76.9677 13.8683 76.9677 13.0476C76.9677 12.2271 76.7595 11.5964 76.3431 11.1556C75.9389 10.7147 75.4368 10.4942 74.8367 10.4942C74.2244 10.4942 73.7161 10.7147 73.3119 11.1556C72.9078 11.5842 72.7057 12.2149 72.7057 13.0476C72.7057 13.8683 72.9017 14.4989 73.2935 14.9398C73.6977 15.3807 74.1999 15.6012 74.7999 15.6012Z" fill="#9CA3AF"/>
<path d="M82.8592 6.85678C82.3081 6.85678 81.855 6.69756 81.4998 6.37914C81.1569 6.04847 80.9854 5.64433 80.9854 5.1667C80.9854 4.67682 81.1569 4.27267 81.4998 3.95425C81.855 3.62359 82.3081 3.45825 82.8592 3.45825C83.3981 3.45825 83.839 3.62359 84.1819 3.95425C84.537 4.27267 84.7146 4.67682 84.7146 5.1667C84.7146 5.64433 84.537 6.04847 84.1819 6.37914C83.839 6.69756 83.3981 6.85678 82.8592 6.85678ZM84.4206 7.92225V18.1729H81.2793V7.92225H84.4206Z" fill="#9CA3AF"/>
<path d="M89.2875 9.3736C89.5942 8.896 90.0164 8.51021 90.5551 8.21628C91.0938 7.92235 91.7249 7.77539 92.4475 7.77539C93.2929 7.77539 94.0582 7.98971 94.7435 8.41835C95.4298 8.84699 95.9684 9.45938 96.3604 10.2554C96.7649 11.0515 96.9666 11.9761 96.9666 13.0293C96.9666 14.0826 96.7649 15.0133 96.3604 15.8216C95.9684 16.6177 95.4298 17.2361 94.7435 17.677C94.0582 18.1057 93.2929 18.32 92.4475 18.32C91.7373 18.32 91.1062 18.173 90.5551 17.8791C90.0164 17.5852 89.5942 17.2055 89.2875 16.7401V23.0596H86.1464V7.92235H89.2875V9.3736ZM93.7702 13.0293C93.7702 12.2455 93.5498 11.6332 93.1089 11.1923C92.6804 10.7391 92.1471 10.5125 91.5106 10.5125C90.8858 10.5125 90.3533 10.7391 89.9124 11.1923C89.484 11.6454 89.2698 12.2639 89.2698 13.0476C89.2698 13.8315 89.484 14.45 89.9124 14.9031C90.3533 15.3563 90.8858 15.5828 91.5106 15.5828C92.1355 15.5828 92.668 15.3563 93.1089 14.9031C93.5498 14.4377 93.7702 13.8132 93.7702 13.0293Z" fill="#9CA3AF"/>
<path d="M102.233 18.32C101.339 18.32 100.544 18.1669 99.8457 17.8607C99.1471 17.5546 98.596 17.1381 98.1924 16.6116C97.788 16.0727 97.5613 15.4725 97.5124 14.8112H100.617C100.654 15.1664 100.819 15.4542 101.113 15.6747C101.407 15.8951 101.768 16.0053 102.197 16.0053C102.589 16.0053 102.888 15.9318 103.097 15.7849C103.318 15.6257 103.428 15.4236 103.428 15.1787C103.428 14.8847 103.274 14.6704 102.968 14.5356C102.662 14.3887 102.166 14.2295 101.48 14.058C100.745 13.8866 100.133 13.709 99.6431 13.5253C99.1533 13.3293 98.7311 13.0293 98.3755 12.6252C98.0208 12.2088 97.8431 11.6516 97.8431 10.9534C97.8431 10.3656 98.0022 9.83289 98.3204 9.3552C98.6511 8.86536 99.1293 8.47959 99.7533 8.19791C100.391 7.91623 101.144 7.77539 102.013 7.77539C103.299 7.77539 104.31 8.09381 105.044 8.73065C105.792 9.36747 106.22 10.2125 106.33 11.2658H103.428C103.378 10.9106 103.219 10.6289 102.95 10.4207C102.693 10.2125 102.35 10.1084 101.921 10.1084C101.554 10.1084 101.272 10.1819 101.076 10.3289C100.88 10.4636 100.783 10.6534 100.783 10.8983C100.783 11.1923 100.936 11.4127 101.241 11.5596C101.56 11.7067 102.05 11.8536 102.712 12.0005C103.471 12.1965 104.089 12.3924 104.567 12.5884C105.044 12.7721 105.461 13.0783 105.816 13.5069C106.184 13.9234 106.373 14.4867 106.385 15.197C106.385 15.7972 106.214 16.336 105.871 16.8136C105.54 17.279 105.056 17.6464 104.42 17.9158C103.795 18.1852 103.066 18.32 102.233 18.32Z" fill="#9CA3AF"/>
<path d="M117.878 7.92188V18.1725H114.736V16.7764C114.418 17.2296 113.983 17.5969 113.432 17.8786C112.894 18.1481 112.294 18.2827 111.632 18.2827C110.848 18.2827 110.156 18.1113 109.556 17.7684C108.956 17.4132 108.491 16.905 108.16 16.2436C107.83 15.5823 107.664 14.8047 107.664 13.9106V7.92188H110.787V13.4881C110.787 14.1739 110.965 14.7066 111.319 15.0863C111.675 15.466 112.152 15.6558 112.752 15.6558C113.365 15.6558 113.848 15.466 114.204 15.0863C114.559 14.7066 114.736 14.1739 114.736 13.4881V7.92188H117.878Z" fill="#9CA3AF"/>
<path d="M132.663 7.81177C133.936 7.81177 134.947 8.19755 135.694 8.96907C136.454 9.74062 136.833 10.8123 136.833 12.1839V18.1726H133.71V12.6064C133.71 11.9451 133.533 11.4369 133.177 11.0817C132.834 10.7143 132.357 10.5306 131.744 10.5306C131.132 10.5306 130.648 10.7143 130.293 11.0817C129.951 11.4369 129.779 11.9451 129.779 12.6064V18.1726H126.655V12.6064C126.655 11.9451 126.479 11.4369 126.123 11.0817C125.78 10.7143 125.303 10.5306 124.69 10.5306C124.078 10.5306 123.594 10.7143 123.239 11.0817C122.896 11.4369 122.725 11.9451 122.725 12.6064V18.1726H119.583V7.92199H122.725V9.20791C123.043 8.77928 123.459 8.44249 123.974 8.19755C124.488 7.94036 125.07 7.81177 125.719 7.81177C126.49 7.81177 127.176 7.9771 127.776 8.30777C128.389 8.63843 128.866 9.10995 129.209 9.72231C129.565 9.15893 130.048 8.69967 130.661 8.34451C131.273 7.98935 131.941 7.81177 132.663 7.81177Z" fill="#9CA3AF"/>
</g>
<defs>
<clipPath id="clip0_7608_4806">
<rect width="136.889" height="24" fill="white" transform="translate(0.222214)"/>
</clipPath>
</defs>
</svg>
