<svg width="1550" height="363" viewBox="0 0 1550 363" fill="none" xmlns="http://www.w3.org/2000/svg">
<path d="M528.487 146.433H488.643C487.507 139.899 485.412 134.111 482.358 129.068C479.304 123.955 475.504 119.622 470.959 116.071C466.413 112.52 461.229 109.857 455.405 108.081C449.652 106.234 443.437 105.311 436.761 105.311C424.9 105.311 414.389 108.294 405.227 114.26C396.065 120.155 388.892 128.82 383.707 140.254C378.523 151.618 375.93 165.503 375.93 181.909C375.93 198.599 378.523 212.662 383.707 224.097C388.963 235.46 396.136 244.054 405.227 249.878C414.389 255.631 424.865 258.507 436.655 258.507C443.189 258.507 449.297 257.655 454.979 255.95C460.731 254.175 465.881 251.582 470.426 248.173C475.042 244.764 478.913 240.574 482.038 235.602C485.234 230.631 487.436 224.949 488.643 218.557L528.487 218.77C526.996 229.139 523.764 238.869 518.792 247.96C513.892 257.051 507.464 265.077 499.51 272.037C491.555 278.926 482.251 284.324 471.598 288.23C460.944 292.065 449.119 293.983 436.122 293.983C416.946 293.983 399.829 289.544 384.773 280.666C369.716 271.788 357.855 258.969 349.19 242.207C340.525 225.446 336.193 205.347 336.193 181.909C336.193 158.401 340.561 138.301 349.297 121.611C358.032 104.849 369.929 92.0298 384.986 83.152C400.042 74.2741 417.088 69.8352 436.122 69.8352C448.267 69.8352 459.559 71.5398 470 74.9489C480.44 78.358 489.744 83.3651 497.912 89.9702C506.079 96.5043 512.791 104.53 518.047 114.047C523.373 123.493 526.854 134.288 528.487 146.433ZM601.543 195.119V291H562.977V72.8182H600.691V155.169H602.608C606.443 145.936 612.374 138.656 620.399 133.33C628.496 127.932 638.794 125.233 651.294 125.233C662.658 125.233 672.566 127.612 681.017 132.371C689.469 137.129 696.003 144.089 700.62 153.251C705.307 162.413 707.651 173.599 707.651 186.81V291H669.085V192.776C669.085 181.767 666.245 173.209 660.563 167.101C654.952 160.922 647.068 157.832 636.912 157.832C630.094 157.832 623.986 159.324 618.588 162.307C613.262 165.219 609.071 169.445 606.017 174.984C603.034 180.524 601.543 187.236 601.543 195.119ZM819.405 294.196C802.999 294.196 788.83 290.787 776.898 283.969C765.037 277.08 755.911 267.349 749.519 254.778C743.127 242.136 739.931 227.257 739.931 210.141C739.931 193.308 743.127 178.536 749.519 165.822C755.982 153.038 765.002 143.095 776.578 135.993C788.155 128.82 801.756 125.233 817.381 125.233C827.466 125.233 836.983 126.866 845.932 130.134C854.952 133.33 862.906 138.301 869.796 145.048C876.756 151.795 882.225 160.389 886.202 170.83C890.179 181.199 892.168 193.557 892.168 207.903V219.729H758.041V193.734H855.2C855.129 186.348 853.531 179.778 850.406 174.026C847.281 168.202 842.914 163.621 837.303 160.283C831.763 156.945 825.3 155.276 817.914 155.276C810.03 155.276 803.105 157.193 797.139 161.028C791.173 164.793 786.521 169.764 783.183 175.943C779.916 182.051 778.247 188.763 778.176 196.078V218.77C778.176 228.287 779.916 236.455 783.396 243.273C786.877 250.02 791.742 255.205 797.992 258.827C804.242 262.378 811.557 264.153 819.938 264.153C825.548 264.153 830.627 263.372 835.172 261.81C839.718 260.176 843.659 257.797 846.997 254.672C850.335 251.547 852.857 247.676 854.561 243.06L890.57 247.108C888.297 256.625 883.965 264.935 877.573 272.037C871.252 279.068 863.155 284.537 853.283 288.443C843.411 292.278 832.118 294.196 819.405 294.196ZM996.172 294.196C979.836 294.196 965.809 290.609 954.091 283.436C942.443 276.263 933.459 266.355 927.138 253.713C920.888 241 917.763 226.369 917.763 209.821C917.763 193.202 920.959 178.536 927.351 165.822C933.743 153.038 942.763 143.095 954.41 135.993C966.129 128.82 979.979 125.233 995.959 125.233C1009.24 125.233 1020.99 127.683 1031.22 132.584C1041.52 137.413 1049.72 144.267 1055.83 153.145C1061.94 161.952 1065.42 172.25 1066.27 184.04H1029.41C1027.92 176.156 1024.37 169.587 1018.76 164.331C1013.22 159.004 1005.8 156.341 996.491 156.341C988.608 156.341 981.683 158.472 975.717 162.733C969.751 166.923 965.099 172.96 961.761 180.844C958.494 188.727 956.861 198.173 956.861 209.182C956.861 220.332 958.494 229.92 961.761 237.946C965.028 245.901 969.609 252.044 975.504 256.376C981.47 260.638 988.466 262.768 996.491 262.768C1002.17 262.768 1007.25 261.703 1011.73 259.572C1016.27 257.371 1020.07 254.21 1023.12 250.091C1026.18 245.972 1028.27 240.964 1029.41 235.07H1066.27C1065.35 246.646 1061.94 256.909 1056.04 265.858C1050.15 274.736 1042.12 281.696 1031.97 286.739C1021.81 291.71 1009.88 294.196 996.172 294.196ZM1133.09 239.651L1132.99 193.095H1139.17L1197.97 127.364H1243.04L1170.7 207.903H1162.71L1133.09 239.651ZM1097.94 291V72.8182H1136.5V291H1097.94ZM1200.64 291L1147.37 216.533L1173.36 189.366L1246.77 291H1200.64ZM1309.97 72.8182V291H1270.44V72.8182H1309.97ZM1380.79 291H1338.6L1415.41 72.8182H1464.2L1541.12 291H1498.93L1440.66 117.562H1438.95L1380.79 291ZM1382.17 205.453H1497.23V237.2H1382.17V205.453Z" fill="#181B25"/>
<path d="M89.2784 92.2645C96.3504 84.6678 104.422 81.0206 113.084 80.3445C121.271 79.7056 129.339 81.7826 136.545 84.1872C137.341 84.453 138.14 84.7287 138.94 85.0095C139.307 84.2452 139.678 83.4859 140.054 82.7346C143.449 75.9386 147.685 68.7644 153.926 63.4273C160.529 57.7805 168.815 54.6516 179.188 55.0226C189.762 55.4009 197.803 59.3671 203.836 65.7929C209.322 71.6361 212.738 79.1041 215.404 86.0457C217.162 85.4024 218.93 84.7728 220.685 84.1872C227.892 81.7826 235.96 79.7056 244.146 80.3446C252.808 81.0206 260.88 84.6678 267.952 92.2645C275.162 100.009 278.043 108.5 277.765 117.31C277.505 125.552 274.483 133.462 271.364 140.398C270.974 141.266 270.586 142.109 270.202 142.935C271.419 143.37 272.664 143.822 273.946 144.305C281.227 147.049 289.161 150.573 295.211 156.353C301.727 162.578 305.517 170.873 305.414 181.672C305.313 192.335 301.459 200.49 294.999 206.604C288.985 212.296 281.167 215.766 273.995 218.468C272.83 218.907 271.696 219.319 270.587 219.717C270.996 220.59 271.41 221.482 271.825 222.4C275.033 229.49 278.15 237.591 278.341 245.956C278.547 254.965 275.362 263.511 267.653 271.075C260.042 278.543 251.55 281.584 242.659 281.34C234.382 281.113 226.401 278.037 219.419 274.876C218.647 274.527 217.892 274.179 217.154 273.834C216.875 274.6 216.589 275.379 216.291 276.172C213.589 283.344 210.12 291.162 204.428 297.175C198.314 303.635 190.158 307.49 179.495 307.591C168.696 307.694 160.402 303.902 154.177 297.387C148.397 291.337 144.873 283.403 142.129 276.122C141.773 275.178 141.433 274.255 141.105 273.349C140.039 273.851 138.946 274.363 137.812 274.876C130.83 278.037 122.848 281.113 114.571 281.34C105.681 281.584 97.1885 278.543 89.5772 271.075C81.8684 263.512 78.6832 254.966 78.8886 245.957C79.0796 237.592 82.1975 229.49 85.4055 222.4C85.97 221.153 86.5312 219.953 87.0835 218.785C86.229 218.473 85.3584 218.15 84.4689 217.812C77.3598 215.113 69.6288 211.656 63.6168 206.012C57.191 199.979 53.2247 191.938 52.8465 181.364C52.4755 170.991 55.6044 162.705 61.2512 156.102C66.5882 149.862 73.7618 145.626 80.5577 142.231C82.2119 141.404 83.9066 140.598 85.6039 139.81C82.5806 133.017 79.7181 125.32 79.4651 117.31C79.1871 108.5 82.0687 100.009 89.2784 92.2645ZM235 237.176C230.459 241.718 227.136 247.557 224.246 254.412C224.029 254.929 223.817 255.441 223.61 255.95C224.888 256.56 226.099 257.132 227.222 257.641C233.86 260.646 238.916 262.31 243.179 262.427C246.829 262.527 250.38 261.517 254.403 257.57C258.472 253.578 259.511 250.038 259.427 246.388C259.329 242.094 257.647 236.961 254.588 230.2C254.03 228.968 253.397 227.633 252.722 226.221C252.56 226.288 252.398 226.354 252.236 226.422C245.38 229.312 239.541 232.635 235 237.176ZM158.336 265.316C158.857 266.793 159.355 268.184 159.831 269.449C162.449 276.394 164.889 281.212 167.856 284.318C170.379 286.958 173.616 288.727 179.317 288.673C184.952 288.619 188.178 286.822 190.688 284.17C193.619 281.073 196.017 276.321 198.586 269.502C199.02 268.349 199.471 267.089 199.943 265.754C199.437 265.54 198.926 265.326 198.407 265.115C191.516 262.311 185.037 260.532 178.615 260.532C172.193 260.532 165.715 262.311 158.824 265.115C158.66 265.181 158.498 265.25 158.336 265.316ZM261.767 161.203C259.013 168.02 257.252 174.457 257.236 180.884C257.22 187.39 259.029 193.983 261.888 201.008C262.092 201.512 262.298 202.008 262.505 202.499C264.24 201.89 265.868 201.311 267.326 200.762C274.145 198.193 278.897 195.795 281.994 192.864C284.646 190.354 286.443 187.128 286.497 181.493C286.551 175.792 284.781 172.556 282.141 170.033C279.035 167.066 274.217 164.626 267.272 162.008C265.738 161.43 264.02 160.819 262.187 160.177C262.047 160.516 261.906 160.858 261.767 161.203ZM148.788 108.784C148.262 109.878 147.724 110.978 147.168 112.076C143.396 119.532 138.675 127.4 131.95 134.126C125.484 140.591 117.963 145.202 110.767 148.9C111.556 150.656 112.317 152.407 113.007 154.116C116.205 162.032 118.89 171.016 118.914 180.837C118.939 190.823 116.17 200.017 112.874 208.119C113.037 208.187 113.2 208.253 113.361 208.321C121.22 211.657 129.47 216.112 136.432 223.039C143.517 230.089 148.063 238.555 151.463 246.621C151.59 246.922 151.713 247.227 151.839 247.533C159.785 244.311 168.799 241.611 178.615 241.611C188.492 241.611 197.556 244.343 205.538 247.591C205.837 247.712 206.137 247.838 206.438 247.964C206.563 247.661 206.687 247.36 206.812 247.062C210.16 239.122 214.638 230.782 221.622 223.798C228.563 216.857 236.844 212.392 244.74 209.051C244.613 208.746 244.486 208.443 244.363 208.14C241.064 200.033 238.292 190.831 238.316 180.837C238.341 171.016 241.025 162.032 244.223 154.116C244.289 153.954 244.356 153.792 244.422 153.63C236.364 150.231 227.907 145.686 220.863 138.608C213.936 131.647 209.481 123.396 206.145 115.537C205.425 113.84 204.722 112.065 204.038 110.265C196.335 112.738 187.758 114.796 178.615 114.796C169.104 114.796 160.202 112.571 152.262 109.966C151.093 109.582 149.933 109.186 148.788 108.784ZM104.942 225.309C104.101 227.059 103.319 228.706 102.643 230.2C99.5831 236.961 97.9011 242.094 97.8031 246.388C97.7198 250.038 98.758 253.578 102.827 257.57C106.85 261.517 110.402 262.527 114.052 262.427C118.314 262.31 123.37 260.646 130.009 257.641C131.427 256.998 132.987 256.258 134.644 255.461C134.444 254.968 134.239 254.47 134.028 253.969C131.082 246.981 127.699 241.04 123.087 236.45C118.531 231.917 112.736 228.61 105.968 225.737C105.624 225.591 105.282 225.449 104.942 225.309ZM221.828 103.841C222.369 105.252 222.939 106.68 223.56 108.144C226.434 114.912 229.741 120.707 234.274 125.263C238.864 129.875 244.804 133.259 251.793 136.205C251.976 136.282 252.16 136.357 252.342 136.432C252.981 135.087 253.58 133.815 254.108 132.64C257.061 126.073 258.719 121.026 258.855 116.713C258.973 112.967 257.966 109.303 254.104 105.155C250.176 100.936 246.482 99.5032 242.674 99.206C238.391 98.8717 233.284 99.9282 226.673 102.134C225.09 102.662 223.483 103.234 221.828 103.841ZM89.0138 159.154C82.7796 162.269 78.4221 165.134 75.6298 168.399C73.1473 171.301 71.5484 174.926 71.7545 180.688C71.957 186.351 73.8341 189.653 76.5664 192.218C79.7125 195.172 84.4541 197.569 91.185 200.125C92.3891 200.582 93.7116 201.058 95.1142 201.557C95.1895 201.374 95.2679 201.192 95.3429 201.008C98.2016 193.983 100.01 187.39 99.9939 180.884C99.978 174.457 98.2177 168.02 95.4637 161.203C94.8681 159.729 94.2621 158.315 93.6469 156.935C92.0475 157.677 90.5067 158.409 89.0138 159.154ZM166.222 77.8059C162.957 80.5983 160.093 84.9556 156.978 91.1899C156.921 91.3053 156.864 91.4211 156.806 91.537C157.257 91.6897 157.708 91.8404 158.159 91.9885C165.26 94.3183 171.983 95.8753 178.615 95.8753C184.788 95.8753 191.038 94.5257 197.6 92.4605C195.172 86.2053 192.862 81.7462 190.042 78.7425C187.477 76.0102 184.175 74.1332 178.512 73.9306C172.75 73.7245 169.125 75.3234 166.222 77.8059ZM114.556 99.206C110.748 99.5032 107.054 100.936 103.126 105.155C99.2648 109.303 98.2573 112.967 98.3755 116.713C98.5056 120.831 100.024 125.618 102.73 131.758C108.831 128.578 114.206 125.112 118.571 120.747C123.261 116.058 126.912 110.203 130.286 103.534C130.5 103.11 130.712 102.685 130.922 102.259C130.8 102.218 130.678 102.176 130.557 102.135C123.946 99.929 118.839 98.8717 114.556 99.206Z" fill="#181B25"/>
</svg>
