<svg width="30" height="30" viewBox="0 0 30 30" fill="none" xmlns="http://www.w3.org/2000/svg">
<path d="M24.3762 12.1857C24.3762 14.8748 23.5031 17.3588 22.0323 19.3741L29.4507 26.7969C30.1831 27.5292 30.1831 28.7184 29.4507 29.4508C28.7182 30.1831 27.5287 30.1831 26.7962 29.4508L19.3779 22.028C17.3622 23.4985 14.8777 24.3714 12.1881 24.3714C5.45534 24.3714 0 18.9172 0 12.1857C0 5.45428 5.45534 0 12.1881 0C18.9208 0 24.3762 5.45428 24.3762 12.1857ZM12.1881 20.622C16.8465 20.622 20.626 16.8432 20.626 12.1857C20.626 7.52819 16.8465 3.74945 12.1881 3.74945C7.52966 3.74945 3.75018 7.52819 3.75018 12.1857C3.75018 16.8432 7.52966 20.622 12.1881 20.622Z" fill="black"/>
</svg>
