<svg width="30" height="30" viewBox="0 0 30 30" fill="none" xmlns="http://www.w3.org/2000/svg">
<path d="M15 2.8125C21.7324 2.8125 27.1875 8.26758 27.1875 15C27.1875 21.7324 21.7324 27.1875 15 27.1875C8.26758 27.1875 2.8125 21.7324 2.8125 15C2.8125 8.26758 8.26758 2.8125 15 2.8125ZM15 30C23.2852 30 30 23.2852 30 15C30 6.71484 23.2852 0 15 0C6.71484 0 0 6.71484 0 15C0 23.2852 6.71484 30 15 30ZM9.78516 9.78516C9.23438 10.3359 9.23438 11.2266 9.78516 11.7715L13.0078 14.9941L9.78516 18.2168C9.23438 18.7676 9.23438 19.6582 9.78516 20.2031C10.3359 20.748 11.2266 20.7539 11.7715 20.2031L14.9941 16.9805L18.2168 20.2031C18.7676 20.7539 19.6582 20.7539 20.2031 20.2031C20.748 19.6523 20.7539 18.7617 20.2031 18.2168L16.9805 14.9941L20.2031 11.7715C20.7539 11.2207 20.7539 10.3301 20.2031 9.78516C19.6523 9.24023 18.7617 9.23438 18.2168 9.78516L14.9941 13.0078L11.7715 9.78516C11.2207 9.23438 10.3301 9.23438 9.78516 9.78516Z" fill="black"/>
</svg>
