<svg width="686" height="686" viewBox="0 0 686 686" fill="none" xmlns="http://www.w3.org/2000/svg">
<path d="M98.9452 101.143C118.136 80.528 140.04 70.6309 163.546 68.7963C185.762 67.0624 207.655 72.6987 227.211 79.224C229.372 79.9451 231.54 80.6934 233.71 81.4554C234.706 79.3813 235.714 77.3207 236.732 75.2821C245.946 56.8401 257.442 37.3717 274.377 22.8887C292.295 7.56513 314.781 -0.925581 342.929 0.0810878C371.624 1.10753 393.445 11.8706 409.816 29.3079C424.702 45.1645 433.973 65.43 441.207 84.2673C445.978 82.5217 450.777 80.8131 455.539 79.224C475.095 72.6988 496.989 67.0624 519.205 68.7963C542.71 70.631 564.614 80.5281 583.805 101.143C603.37 122.159 611.19 145.201 610.435 169.107C609.729 191.473 601.527 212.939 593.065 231.76C592.006 234.115 590.953 236.405 589.912 238.644C593.213 239.825 596.592 241.052 600.069 242.363C619.829 249.811 641.359 259.372 657.776 275.057C675.458 291.95 685.744 314.46 685.465 343.766C685.19 372.701 674.731 394.831 657.202 411.422C640.883 426.869 619.667 436.285 600.205 443.616C597.042 444.807 593.965 445.927 590.956 447.006C592.065 449.375 593.188 451.796 594.315 454.287C603.02 473.526 611.479 495.51 611.997 518.21C612.555 542.657 603.914 565.85 582.994 586.375C562.34 606.641 539.295 614.893 515.17 614.231C492.707 613.614 471.049 605.268 452.103 596.69C450.007 595.741 447.96 594.798 445.956 593.863C445.2 595.94 444.424 598.055 443.614 600.207C436.283 619.669 426.869 640.883 411.422 657.202C394.831 674.73 372.699 685.193 343.764 685.468C314.459 685.746 291.95 675.457 275.057 657.776C259.372 641.358 249.811 619.829 242.363 600.069C241.398 597.51 240.475 595.005 239.584 592.544C236.693 593.909 233.726 595.296 230.648 596.69C211.702 605.268 190.043 613.614 167.581 614.231C143.455 614.893 120.411 606.641 99.7562 586.375C78.837 565.85 70.1934 542.659 70.7509 518.212C71.269 495.512 79.7301 473.526 88.4355 454.287C89.9673 450.902 91.4903 447.646 92.9891 444.478C90.6703 443.631 88.3078 442.753 85.894 441.837C66.6021 434.511 45.623 425.132 29.3082 409.816C11.8708 393.445 1.1078 371.623 0.0813708 342.928C-0.92525 314.781 7.5654 292.295 22.8889 274.377C37.3717 257.442 56.8384 245.948 75.2801 236.734C79.7693 234.492 84.368 232.305 88.974 230.167C80.7698 211.732 73.0018 190.845 72.3153 169.107C71.5608 145.201 79.3805 122.159 98.9452 101.143ZM494.385 494.385C482.062 506.708 473.045 522.553 465.203 541.157C464.612 542.559 464.037 543.949 463.477 545.329C466.945 546.986 470.23 548.539 473.277 549.918C491.291 558.074 505.011 562.59 516.579 562.908C526.483 563.179 536.122 560.438 547.038 549.728C558.081 538.893 560.898 529.288 560.672 519.382C560.406 507.729 555.841 493.802 547.539 475.453C546.026 472.111 544.309 468.488 542.475 464.655C542.038 464.837 541.597 465.017 541.157 465.203C522.554 473.045 506.708 482.062 494.385 494.385ZM286.345 570.747C287.758 574.754 289.108 578.529 290.402 581.962C297.506 600.807 304.127 613.884 312.179 622.312C319.024 629.476 327.809 634.276 343.279 634.129C358.571 633.983 367.325 629.107 374.136 621.911C382.091 613.507 388.597 600.61 395.568 582.106C396.746 578.977 397.97 575.557 399.251 571.935C397.879 571.355 396.491 570.773 395.083 570.2C376.383 562.591 358.803 557.765 341.375 557.765C323.948 557.765 306.368 562.591 287.668 570.2C287.225 570.38 286.784 570.566 286.345 570.747ZM567.02 288.219C559.547 306.719 554.77 324.186 554.727 341.625C554.683 359.283 559.591 377.174 567.348 396.237C567.904 397.603 568.461 398.951 569.023 400.283C573.733 398.631 578.15 397.058 582.106 395.568C600.611 388.597 613.507 382.091 621.911 374.136C629.107 367.325 633.984 358.571 634.129 343.278C634.276 327.809 629.474 319.026 622.31 312.181C613.881 304.129 600.805 297.508 581.959 290.404C577.797 288.835 573.134 287.177 568.161 285.434C567.78 286.354 567.399 287.282 567.02 288.219ZM260.433 145.972C259.006 148.94 257.546 151.926 256.039 154.904C245.801 175.139 232.992 196.489 214.74 214.74C197.196 232.285 176.785 244.796 157.257 254.833C159.399 259.598 161.464 264.35 163.337 268.988C172.015 290.47 179.301 314.847 179.367 341.499C179.434 368.597 171.919 393.546 162.976 415.532C163.417 415.717 163.859 415.896 164.297 416.082C185.623 425.135 208.013 437.223 226.905 456.022C246.13 475.152 258.467 498.127 267.692 520.013C268.037 520.831 268.372 521.659 268.714 522.489C290.277 513.746 314.736 506.419 341.375 506.419C368.177 506.419 392.774 513.832 414.433 522.646C415.245 522.976 416.059 523.317 416.877 523.658C417.215 522.838 417.552 522.021 417.892 521.212C426.976 499.665 439.129 477.032 458.081 458.081C476.916 439.246 499.388 427.128 520.816 418.063C520.471 417.235 520.126 416.411 519.792 415.59C510.839 393.59 503.317 368.62 503.384 341.499C503.45 314.847 510.735 290.47 519.413 268.988C519.591 268.549 519.773 268.109 519.954 267.667C498.085 258.445 475.135 246.112 456.022 226.905C437.223 208.013 425.135 185.623 416.082 164.297C414.127 159.692 412.219 154.875 410.365 149.991C389.461 156.702 366.184 162.287 341.375 162.287C315.564 162.287 291.409 156.247 269.861 149.178C266.689 148.137 263.542 147.062 260.433 145.972ZM141.452 462.18C139.168 466.929 137.046 471.4 135.212 475.453C126.909 493.802 122.344 507.728 122.079 519.382C121.852 529.288 124.67 538.893 135.713 549.728C146.629 560.438 156.267 563.179 166.171 562.908C177.739 562.59 191.459 558.074 209.473 549.918C213.322 548.176 217.556 546.165 222.053 544.004C221.508 542.665 220.952 541.315 220.38 539.956C212.385 520.991 203.206 504.87 190.69 492.415C178.327 480.114 162.6 471.138 144.235 463.341C143.302 462.945 142.374 462.562 141.452 462.18ZM458.639 132.557C460.108 136.386 461.655 140.262 463.341 144.234C471.138 162.6 480.114 178.327 492.415 190.689C504.87 203.206 520.989 212.388 539.954 220.382C540.451 220.591 540.951 220.794 541.445 221C543.179 217.349 544.804 213.896 546.238 210.707C554.249 192.888 558.749 179.191 559.119 167.487C559.439 157.322 556.705 147.381 546.227 136.124C535.568 124.674 525.543 120.786 515.21 119.98C503.586 119.073 489.728 121.94 471.788 127.926C467.492 129.359 463.132 130.911 458.639 132.557ZM98.2273 282.66C81.3098 291.112 69.485 298.885 61.9076 307.745C55.1708 315.623 50.832 325.46 51.3912 341.094C51.9409 356.462 57.0346 365.422 64.4491 372.383C72.9866 380.398 85.8536 386.904 104.119 393.839C107.387 395.08 110.976 396.371 114.782 397.726C114.986 397.231 115.199 396.737 115.402 396.237C123.16 377.174 128.067 359.283 128.024 341.625C127.98 324.186 123.204 306.719 115.73 288.219C114.114 284.218 112.469 280.383 110.8 276.637C106.46 278.65 102.279 280.636 98.2273 282.66ZM307.745 61.9073C298.885 69.4848 291.112 81.3092 282.66 98.227C282.504 98.54 282.348 98.8542 282.193 99.1688C283.416 99.5832 284.639 99.9922 285.864 100.394C305.135 106.716 323.378 110.942 341.375 110.942C358.126 110.941 375.087 107.279 392.893 101.675C386.306 84.7003 380.036 72.5999 372.384 64.4489C365.423 57.0344 356.462 51.9407 341.094 51.3909C325.46 50.8317 315.623 55.1705 307.745 61.9073ZM167.541 119.98C157.207 120.786 147.183 124.675 136.524 136.124C126.045 147.381 123.311 157.322 123.632 167.487C123.985 178.662 128.104 191.653 135.449 208.314C152.005 199.685 166.591 190.281 178.436 178.436C191.162 165.71 201.071 149.821 210.227 131.724C210.808 130.575 211.382 129.421 211.953 128.265C211.621 128.153 211.291 128.038 210.96 127.928C193.021 121.942 179.164 119.073 167.541 119.98Z" fill="url(#paint0_linear_130_9726)"/>
<defs>
<linearGradient id="paint0_linear_130_9726" x1="-38.7525" y1="159.701" x2="721.503" y2="526.901" gradientUnits="userSpaceOnUse">
<stop offset="0.00480769" stop-color="#007AFF"/>
<stop offset="0.740385" stop-color="#5AE9FD"/>
</linearGradient>
</defs>
</svg>
